{"glyphs":{"0":{"ha":850,"x_min":68,"x_max":813,"o":"m 227 1109 l 654 1109 q 666 1097 666 1107 l 666 963 l 801 963 q 813 950 813 961 l 813 231 q 801 219 813 219 l 666 219 l 666 84 q 654 72 666 72 l 227 72 q 215 84 215 72 l 215 219 l 80 219 q 68 231 68 219 l 68 950 q 80 963 70 963 l 215 963 l 215 1097 q 227 1109 216 1109 m 227 950 l 227 524 l 361 524 l 361 658 q 373 670 363 670 l 508 670 l 508 805 q 520 816 510 816 l 654 816 l 654 950 l 227 950 m 520 658 l 520 524 q 508 512 520 512 l 373 512 l 373 377 q 361 365 373 365 l 227 365 l 227 231 l 654 231 l 654 658 l 520 658 z "},"1":{"ha":850,"x_min":215,"x_max":665,"o":"m 373 1109 l 507 1109 q 519 1096 519 1107 l 519 233 l 653 233 q 665 221 665 231 l 665 87 q 653 75 665 75 l 227 75 q 215 87 215 75 l 215 221 q 227 233 217 233 l 361 233 l 361 805 l 227 805 q 215 817 215 805 l 215 950 q 227 963 217 963 l 361 963 l 361 1096 q 373 1109 363 1109 z "},"2":{"ha":850,"x_min":69,"x_max":812,"o":"m 227 1103 l 653 1103 q 665 1091 665 1101 l 665 957 l 799 957 q 812 945 812 955 l 812 666 q 799 654 812 654 l 665 654 l 665 520 q 653 507 665 507 l 519 507 l 519 374 q 507 361 519 361 l 373 361 l 373 227 l 799 227 q 812 215 812 225 l 812 81 q 799 69 812 69 l 81 69 q 69 81 69 69 l 69 215 q 81 227 71 227 l 215 227 l 215 361 q 227 374 217 374 l 361 374 l 361 507 q 373 520 363 520 l 507 520 l 507 654 q 519 666 509 666 l 653 666 l 653 945 l 227 945 l 227 812 q 215 800 227 800 l 81 800 q 69 812 69 800 l 69 945 q 81 957 71 957 l 215 957 l 215 1091 q 227 1103 217 1103 z "},"3":{"ha":850,"x_min":67,"x_max":813,"o":"m 79 1111 l 801 1111 q 813 1099 813 1110 l 813 965 q 801 952 813 952 l 666 952 l 666 818 q 654 807 666 807 l 520 807 l 520 672 l 654 672 q 666 660 666 670 l 666 526 l 801 526 q 813 513 813 524 l 813 232 q 801 220 813 220 l 666 220 l 666 85 q 654 73 666 73 l 226 73 q 214 85 214 73 l 214 220 l 79 220 q 67 232 67 220 l 67 366 q 79 379 69 379 l 214 379 q 226 366 226 377 l 226 232 l 654 232 l 654 513 l 520 513 q 507 526 507 513 l 507 660 l 373 660 q 360 672 360 660 l 360 807 q 373 818 362 818 l 507 818 l 507 952 l 79 952 q 67 965 67 952 l 67 1099 q 79 1111 69 1111 z "},"4":{"ha":850,"x_min":67,"x_max":813,"o":"m 520 1110 l 654 1110 q 667 1098 667 1108 l 667 524 l 801 524 q 813 511 813 522 l 813 377 q 801 365 813 365 l 667 365 l 667 83 q 654 71 667 71 l 520 71 q 507 83 507 71 l 507 365 l 79 365 q 67 377 67 365 l 67 658 q 79 671 69 671 l 214 671 l 214 805 q 226 816 216 816 l 361 816 l 361 951 q 373 963 363 963 l 507 963 l 507 1098 q 520 1110 509 1110 m 373 805 l 373 671 q 361 658 373 658 l 226 658 l 226 524 l 507 524 l 507 805 l 373 805 z "},"5":{"ha":850,"x_min":67,"x_max":814,"o":"m 79 1114 l 802 1114 q 814 1102 814 1112 l 814 967 q 802 955 814 955 l 226 955 l 226 820 l 655 820 q 668 808 668 818 l 668 674 l 802 674 q 814 661 814 672 l 814 232 q 802 220 814 220 l 668 220 l 668 85 q 655 73 668 73 l 226 73 q 214 85 214 73 l 214 220 l 79 220 q 67 232 67 220 l 67 367 q 79 380 69 380 l 214 380 q 226 367 226 378 l 226 232 l 655 232 l 655 661 l 79 661 q 67 674 67 661 l 67 1102 q 79 1114 69 1114 z "},"6":{"ha":850,"x_min":67,"x_max":813,"o":"m 373 1110 l 654 1110 q 666 1098 666 1109 l 666 964 q 654 951 666 951 l 373 951 l 373 817 q 360 806 373 806 l 226 806 l 226 671 l 654 671 q 666 659 666 669 l 666 525 l 801 525 q 813 512 813 523 l 813 231 q 801 219 813 219 l 666 219 l 666 84 q 654 72 666 72 l 226 72 q 214 84 214 72 l 214 219 l 79 219 q 67 231 67 219 l 67 806 q 79 817 69 817 l 214 817 l 214 951 q 226 964 216 964 l 360 964 l 360 1098 q 373 1110 362 1110 m 226 512 l 226 231 l 654 231 l 654 512 l 226 512 z "},"7":{"ha":850,"x_min":69,"x_max":813,"o":"m 81 1110 l 801 1110 q 813 1097 813 1108 l 813 817 q 801 806 813 806 l 667 806 l 667 672 q 654 659 667 659 l 520 659 l 520 525 q 508 513 520 513 l 374 513 l 374 86 q 362 74 374 74 l 228 74 q 215 86 215 74 l 215 513 q 228 525 217 525 l 362 525 l 362 659 q 374 672 364 672 l 508 672 l 508 806 q 520 817 510 817 l 654 817 l 654 951 l 81 951 q 69 963 69 951 l 69 1097 q 81 1110 71 1110 z "},"8":{"ha":850,"x_min":68,"x_max":813,"o":"m 227 1111 l 654 1111 q 666 1099 666 1109 l 666 965 l 801 965 q 813 952 813 963 l 813 672 q 801 660 813 660 l 666 660 l 666 526 l 801 526 q 813 514 813 524 l 813 233 q 801 221 813 221 l 666 221 l 666 86 q 654 74 666 74 l 227 74 q 215 86 215 74 l 215 221 l 80 221 q 68 233 68 221 l 68 514 q 80 526 70 526 l 215 526 l 215 660 l 80 660 q 68 672 68 660 l 68 952 q 80 965 70 965 l 215 965 l 215 1099 q 227 1111 216 1111 m 227 952 l 227 672 l 654 672 l 654 952 l 227 952 m 227 514 l 227 233 l 654 233 l 654 514 l 227 514 z "},"9":{"ha":850,"x_min":69,"x_max":815,"o":"m 228 1112 l 656 1112 q 669 1100 669 1110 l 669 965 l 803 965 q 815 953 815 963 l 815 378 q 803 366 815 366 l 669 366 l 669 231 q 656 219 669 219 l 522 219 l 522 84 q 509 72 522 72 l 228 72 q 216 84 216 72 l 216 219 q 228 231 217 231 l 509 231 l 509 366 q 522 378 511 378 l 656 378 l 656 513 l 228 513 q 216 525 216 513 l 216 660 l 81 660 q 69 672 69 660 l 69 953 q 81 965 70 965 l 216 965 l 216 1100 q 228 1112 217 1112 m 228 953 l 228 672 l 656 672 l 656 953 l 228 953 z "}," ":{"ha":850,"x_min":0,"x_max":0,"o":""},"!":{"ha":850,"x_min":361,"x_max":521,"o":"m 373 1111 l 508 1111 q 521 1099 521 1109 l 521 523 q 508 511 521 511 l 373 511 q 361 523 361 511 l 361 1099 q 373 1111 363 1111 m 373 229 l 508 229 q 521 216 521 227 l 521 81 q 508 69 521 69 l 373 69 q 361 81 361 69 l 361 216 q 373 229 363 229 z "},"\"":{"ha":850,"x_min":220,"x_max":660,"o":"m 232 1113 l 363 1113 q 375 1101 375 1111 l 375 686 q 363 674 375 674 l 232 674 q 220 686 220 674 l 220 1101 q 232 1113 222 1113 m 517 1113 l 648 1113 q 660 1101 660 1111 l 660 686 q 648 674 660 674 l 517 674 q 505 686 505 674 l 505 1101 q 517 1113 507 1113 z "},"#":{"ha":850,"x_min":67,"x_max":814,"o":"m 226 1111 l 361 1111 q 374 1099 374 1109 l 374 817 l 508 817 l 508 1099 q 521 1111 510 1111 l 655 1111 q 668 1099 668 1109 l 668 817 l 802 817 q 814 805 814 815 l 814 671 q 802 658 814 658 l 668 658 l 668 524 l 802 524 q 814 511 814 522 l 814 377 q 802 364 814 364 l 668 364 l 668 82 q 655 70 668 70 l 521 70 q 508 82 508 70 l 508 364 l 374 364 l 374 82 q 361 70 374 70 l 226 70 q 214 82 214 70 l 214 364 l 79 364 q 67 377 67 364 l 67 511 q 79 524 69 524 l 214 524 l 214 658 l 79 658 q 67 671 67 658 l 67 805 q 79 817 69 817 l 214 817 l 214 1099 q 226 1111 216 1111 m 374 658 l 374 524 l 508 524 l 508 658 l 374 658 z "},"$":{"ha":850,"x_min":67,"x_max":813,"o":"m 373 1111 l 507 1111 q 520 1099 520 1109 l 520 964 l 801 964 q 813 952 813 962 l 813 817 q 801 806 813 806 l 226 806 l 226 672 l 654 672 q 667 659 667 670 l 667 525 l 801 525 q 813 512 813 523 l 813 378 q 801 366 813 366 l 667 366 l 667 231 q 654 219 667 219 l 520 219 l 520 84 q 507 72 520 72 l 373 72 q 361 84 361 72 l 361 219 l 79 219 q 67 231 67 219 l 67 366 q 79 378 69 378 l 654 378 l 654 512 l 226 512 q 214 525 214 512 l 214 659 l 79 659 q 67 672 67 659 l 67 806 q 79 817 69 817 l 214 817 l 214 952 q 226 964 216 964 l 361 964 l 361 1099 q 373 1111 363 1111 z "},"%":{"ha":850,"x_min":68,"x_max":813,"o":"m 80 1112 l 361 1112 q 374 1100 374 1111 l 374 819 q 361 808 374 808 l 80 808 q 68 819 68 808 l 68 1100 q 80 1112 70 1112 m 667 966 l 802 966 q 813 953 813 964 l 813 819 q 802 808 813 808 l 667 808 l 667 673 q 655 661 667 661 l 521 661 l 521 527 q 508 514 521 514 l 374 514 l 374 380 q 361 367 374 367 l 227 367 l 227 233 q 215 221 227 221 l 80 221 q 68 233 68 221 l 68 367 q 80 380 70 380 l 215 380 l 215 514 q 227 527 217 527 l 361 527 l 361 661 q 374 673 363 673 l 508 673 l 508 808 q 521 819 510 819 l 655 819 l 655 953 q 667 966 657 966 m 521 380 l 802 380 q 813 367 813 378 l 813 86 q 802 74 813 74 l 521 74 q 508 86 508 74 l 508 367 q 521 380 510 380 z "},"&":{"ha":850,"x_min":67,"x_max":811,"o":"m 226 1111 l 506 1111 q 518 1099 518 1109 l 518 965 l 653 965 q 665 952 665 963 l 665 818 q 653 807 665 807 l 518 807 l 518 673 q 506 661 518 661 l 372 661 l 372 526 l 506 526 q 518 514 518 525 l 518 380 l 653 380 l 653 514 q 665 526 654 526 l 799 526 q 811 514 811 525 l 811 380 q 799 368 811 368 l 665 368 l 665 234 l 799 234 q 811 221 811 232 l 811 87 q 799 75 811 75 l 665 75 q 653 87 653 75 l 653 221 l 518 221 l 518 87 q 506 75 518 75 l 226 75 q 213 87 213 75 l 213 221 l 79 221 q 67 234 67 221 l 67 514 q 79 526 69 526 l 213 526 l 213 661 l 79 661 q 67 673 67 661 l 67 952 q 79 965 69 965 l 213 965 l 213 1099 q 226 1111 215 1111 m 226 952 l 226 673 l 360 673 l 360 807 q 372 818 362 818 l 506 818 l 506 952 l 226 952 m 226 514 l 226 234 l 506 234 l 506 368 l 372 368 q 360 380 360 368 l 360 514 l 226 514 z "},"'":{"ha":850,"x_min":219,"x_max":516,"o":"m 231 1111 l 504 1111 q 516 1099 516 1109 l 516 826 q 504 814 516 814 l 374 814 l 374 684 q 362 672 374 672 l 231 672 q 219 684 219 672 l 219 814 q 231 826 221 826 l 362 826 l 362 956 l 231 956 q 219 968 219 956 l 219 1099 q 231 1111 221 1111 z "},"(":{"ha":850,"x_min":216,"x_max":670,"o":"m 523 1112 l 658 1112 q 670 1100 670 1110 l 670 965 q 658 952 670 952 l 523 952 l 523 818 q 510 806 523 806 l 376 806 l 376 377 l 510 377 q 523 365 523 375 l 523 230 l 658 230 q 670 217 670 228 l 670 82 q 658 70 670 70 l 523 70 q 510 82 510 70 l 510 217 l 376 217 q 363 230 363 217 l 363 365 l 228 365 q 216 377 216 365 l 216 806 q 228 818 218 818 l 363 818 l 363 952 q 376 965 365 965 l 510 965 l 510 1100 q 523 1112 512 1112 z "},")":{"ha":850,"x_min":215,"x_max":669,"o":"m 227 1113 l 362 1113 q 375 1101 375 1111 l 375 966 l 510 966 q 522 953 522 964 l 522 818 l 657 818 q 669 807 669 816 l 669 377 q 657 365 669 365 l 522 365 l 522 230 q 510 217 522 217 l 375 217 l 375 82 q 362 70 375 70 l 227 70 q 215 82 215 70 l 215 217 q 227 230 217 230 l 362 230 l 362 365 q 375 377 364 377 l 510 377 l 510 807 l 375 807 q 362 818 362 807 l 362 953 l 227 953 q 215 966 215 953 l 215 1101 q 227 1113 217 1113 z "},"*":{"ha":850,"x_min":71,"x_max":809,"o":"m 374 961 l 506 961 q 519 949 519 959 l 519 672 l 652 672 l 652 805 q 664 816 654 816 l 797 816 q 809 805 809 814 l 809 672 q 797 659 809 659 l 664 659 l 664 527 l 797 527 q 809 514 809 525 l 809 381 q 797 369 809 369 l 664 369 q 652 381 652 369 l 652 514 l 519 514 l 519 236 q 506 224 519 224 l 374 224 q 361 236 361 224 l 361 514 l 228 514 l 228 381 q 216 369 228 369 l 83 369 q 71 381 71 369 l 71 514 q 83 527 73 527 l 216 527 l 216 659 l 83 659 q 71 672 71 659 l 71 805 q 83 816 73 816 l 216 816 q 228 805 228 814 l 228 672 l 361 672 l 361 949 q 374 961 363 961 z "},"+":{"ha":850,"x_min":71,"x_max":810,"o":"m 374 960 l 507 960 q 519 948 519 958 l 519 670 l 798 670 q 810 658 810 668 l 810 525 q 798 513 810 513 l 519 513 l 519 234 q 507 222 519 222 l 374 222 q 362 234 362 222 l 362 513 l 83 513 q 71 525 71 513 l 71 658 q 83 670 73 670 l 362 670 l 362 948 q 374 960 364 960 z "},",":{"ha":850,"x_min":220,"x_max":518,"o":"m 232 511 l 506 511 q 518 499 518 509 l 518 225 q 506 213 518 213 l 375 213 l 375 82 q 363 70 375 70 l 232 70 q 220 82 220 70 l 220 213 q 232 225 222 225 l 363 225 l 363 356 l 232 356 q 220 368 220 356 l 220 499 q 232 511 222 511 z "},"-":{"ha":850,"x_min":66,"x_max":812,"o":"m 78 673 l 799 673 q 812 661 812 671 l 812 526 q 799 514 812 514 l 78 514 q 66 526 66 514 l 66 661 q 78 673 68 673 z "},"‐":{"ha":850,"x_min":66,"x_max":812,"o":"m 78 673 l 799 673 q 812 661 812 671 l 812 526 q 799 514 812 514 l 78 514 q 66 526 66 514 l 66 661 q 78 673 68 673 z "},".":{"ha":850,"x_min":219,"x_max":511,"o":"m 231 363 l 499 363 q 511 351 511 361 l 511 83 q 499 71 511 71 l 231 71 q 219 83 219 71 l 219 351 q 231 363 221 363 z "},"/":{"ha":850,"x_min":67,"x_max":812,"o":"m 665 966 l 800 966 q 812 954 812 964 l 812 819 q 800 808 812 808 l 665 808 l 665 674 q 653 662 665 662 l 519 662 l 519 527 q 507 515 519 515 l 372 515 l 372 381 q 360 369 372 369 l 226 369 l 226 234 q 214 222 226 222 l 79 222 q 67 234 67 222 l 67 369 q 79 381 69 381 l 214 381 l 214 515 q 226 527 215 527 l 360 527 l 360 662 q 372 674 362 674 l 507 674 l 507 808 q 519 819 509 819 l 653 819 l 653 954 q 665 966 655 966 z "},":":{"ha":850,"x_min":214,"x_max":518,"o":"m 226 963 l 506 963 q 518 951 518 961 l 518 672 q 506 660 518 660 l 226 660 q 214 672 214 660 l 214 951 q 226 963 216 963 m 226 527 l 506 527 q 518 515 518 525 l 518 235 q 506 223 518 223 l 226 223 q 214 235 214 223 l 214 515 q 226 527 216 527 z "},";":{"ha":850,"x_min":214,"x_max":519,"o":"m 226 961 l 507 961 q 519 949 519 959 l 519 669 q 507 657 519 657 l 226 657 q 214 669 214 657 l 214 949 q 226 961 216 961 m 226 523 l 507 523 q 519 510 519 521 l 519 230 q 507 217 519 217 l 373 217 l 373 83 q 360 71 373 71 l 226 71 q 214 83 214 71 l 214 217 q 226 230 216 230 l 360 230 l 360 364 l 226 364 q 214 376 214 364 l 214 510 q 226 523 216 523 z "},"<":{"ha":850,"x_min":64,"x_max":665,"o":"m 518 1110 l 653 1110 q 665 1098 665 1109 l 665 963 q 653 951 665 951 l 518 951 l 518 816 q 505 805 518 805 l 371 805 l 371 670 q 358 658 371 658 l 224 658 l 224 523 l 358 523 q 371 510 371 521 l 371 376 l 505 376 q 518 363 518 374 l 518 229 l 653 229 q 665 216 665 227 l 665 81 q 653 69 665 69 l 518 69 q 505 81 505 69 l 505 216 l 371 216 q 358 229 358 216 l 358 363 l 224 363 q 211 376 211 363 l 211 510 l 76 510 q 64 523 64 510 l 64 658 q 76 670 66 670 l 211 670 l 211 805 q 224 816 213 816 l 358 816 l 358 951 q 371 963 360 963 l 505 963 l 505 1098 q 518 1110 507 1110 z "},"=":{"ha":850,"x_min":66,"x_max":809,"o":"m 78 820 l 797 820 q 809 809 809 818 l 809 675 q 797 662 809 662 l 78 662 q 66 675 66 662 l 66 809 q 78 820 68 820 m 78 529 l 797 529 q 809 516 809 527 l 809 382 q 797 370 809 370 l 78 370 q 66 382 66 370 l 66 516 q 78 529 68 529 z "},">":{"ha":850,"x_min":66,"x_max":669,"o":"m 78 1113 l 214 1113 q 226 1101 226 1111 l 226 965 l 361 965 q 374 953 374 963 l 374 818 l 509 818 q 521 806 521 816 l 521 671 l 657 671 q 669 659 669 669 l 669 523 q 657 511 669 511 l 521 511 l 521 376 q 509 363 521 363 l 374 363 l 374 228 q 361 216 374 216 l 226 216 l 226 80 q 214 68 226 68 l 78 68 q 66 80 66 68 l 66 216 q 78 228 68 228 l 214 228 l 214 363 q 226 376 216 376 l 361 376 l 361 511 q 374 523 363 523 l 509 523 l 509 659 l 374 659 q 361 671 361 659 l 361 806 l 226 806 q 214 818 214 806 l 214 953 l 78 953 q 66 965 66 953 l 66 1101 q 78 1113 68 1113 z "},"?":{"ha":850,"x_min":68,"x_max":815,"o":"m 227 1114 l 656 1114 q 669 1102 669 1112 l 669 967 l 803 967 q 815 955 815 965 l 815 674 q 803 661 815 661 l 669 661 l 669 527 q 656 514 669 514 l 522 514 l 522 380 q 509 367 522 367 l 375 367 q 362 380 362 367 l 362 514 q 375 527 364 527 l 509 527 l 509 661 q 522 674 511 674 l 656 674 l 656 955 l 227 955 l 227 820 q 215 808 227 808 l 80 808 q 68 820 68 808 l 68 955 q 80 967 70 967 l 215 967 l 215 1102 q 227 1114 217 1114 m 375 232 l 509 232 q 522 220 522 231 l 522 85 q 509 73 522 73 l 375 73 q 362 85 362 73 l 362 220 q 375 232 364 232 z "},"@":{"ha":850,"x_min":67,"x_max":815,"o":"m 227 1112 l 657 1112 q 669 1100 669 1110 l 669 965 l 804 965 q 815 952 815 963 l 815 229 q 804 216 815 216 l 669 216 l 669 81 q 657 69 669 69 l 227 69 q 214 81 214 69 l 214 216 l 79 216 q 67 229 67 216 l 67 511 q 79 523 69 523 l 214 523 l 214 659 q 227 671 216 671 l 509 671 q 521 659 521 669 l 521 229 l 657 229 l 657 952 l 227 952 l 227 817 q 214 806 227 806 l 79 806 q 67 817 67 806 l 67 952 q 79 965 69 965 l 214 965 l 214 1100 q 227 1112 216 1112 m 227 511 l 227 229 l 362 229 l 362 511 l 227 511 z "},"A":{"ha":850,"x_min":69,"x_max":814,"o":"m 228 1110 l 656 1110 q 669 1098 669 1108 l 669 963 l 803 963 q 814 951 814 961 l 814 83 q 803 71 814 71 l 669 71 q 656 83 656 71 l 656 365 l 228 365 l 228 83 q 216 71 228 71 l 81 71 q 69 83 69 71 l 69 951 q 81 963 71 963 l 216 963 l 216 1098 q 228 1110 218 1110 m 228 951 l 228 524 l 656 524 l 656 951 l 228 951 z "},"B":{"ha":850,"x_min":69,"x_max":814,"o":"m 81 1110 l 656 1110 q 668 1098 668 1108 l 668 963 l 802 963 q 814 951 814 961 l 814 671 q 802 659 814 659 l 668 659 l 668 524 l 802 524 q 814 512 814 522 l 814 231 q 802 219 814 219 l 668 219 l 668 84 q 656 72 668 72 l 81 72 q 69 84 69 72 l 69 1098 q 81 1110 71 1110 m 228 951 l 228 671 l 656 671 l 656 951 l 228 951 m 228 512 l 228 231 l 656 231 l 656 512 l 228 512 z "},"C":{"ha":850,"x_min":69,"x_max":815,"o":"m 228 1111 l 657 1111 q 669 1099 669 1109 l 669 964 l 804 964 q 815 952 815 962 l 815 817 q 804 806 815 806 l 669 806 q 657 817 657 806 l 657 952 l 228 952 l 228 230 l 657 230 l 657 365 q 669 377 659 377 l 804 377 q 815 365 815 375 l 815 230 q 804 218 815 218 l 669 218 l 669 83 q 657 71 669 71 l 228 71 q 216 83 216 71 l 216 218 l 81 218 q 69 230 69 218 l 69 952 q 81 964 71 964 l 216 964 l 216 1099 q 228 1111 218 1111 z "},"D":{"ha":850,"x_min":70,"x_max":815,"o":"m 82 1111 l 510 1111 q 523 1099 523 1109 l 523 964 l 657 964 q 670 952 670 962 l 670 817 l 804 817 q 815 806 815 815 l 815 378 q 804 366 815 366 l 670 366 l 670 231 q 657 219 670 219 l 523 219 l 523 84 q 510 72 523 72 l 82 72 q 70 84 70 72 l 70 1099 q 82 1111 72 1111 m 229 952 l 229 231 l 510 231 l 510 366 q 523 378 512 378 l 657 378 l 657 806 l 523 806 q 510 817 510 806 l 510 952 l 229 952 z "},"E":{"ha":850,"x_min":69,"x_max":815,"o":"m 81 1113 l 804 1113 q 815 1101 815 1111 l 815 966 q 804 954 815 954 l 228 954 l 228 673 l 657 673 q 669 661 669 671 l 669 526 q 657 514 669 514 l 228 514 l 228 232 l 804 232 q 815 220 815 230 l 815 85 q 804 73 815 73 l 81 73 q 69 85 69 73 l 69 1101 q 81 1113 71 1113 z "},"F":{"ha":850,"x_min":63,"x_max":811,"o":"m 75 1113 l 798 1113 q 811 1101 811 1111 l 811 966 q 798 954 811 954 l 222 954 l 222 673 l 651 673 q 664 660 664 671 l 664 526 q 651 513 664 513 l 222 513 l 222 84 q 210 72 222 72 l 75 72 q 63 84 63 72 l 63 1101 q 75 1113 65 1113 z "},"G":{"ha":850,"x_min":64,"x_max":809,"o":"m 223 1112 l 650 1112 q 662 1100 662 1110 l 662 965 l 797 965 q 809 953 809 964 l 809 819 q 797 808 809 808 l 662 808 q 650 819 650 808 l 650 953 l 223 953 l 223 234 l 650 234 l 650 515 l 369 515 q 357 527 357 515 l 357 661 q 369 673 359 673 l 797 673 q 809 661 809 671 l 809 87 q 797 75 809 75 l 223 75 q 211 87 211 75 l 211 222 l 76 222 q 64 234 64 222 l 64 953 q 76 965 66 965 l 211 965 l 211 1100 q 223 1112 212 1112 z "},"H":{"ha":850,"x_min":71,"x_max":816,"o":"m 83 1111 l 218 1111 q 230 1099 230 1109 l 230 672 l 658 672 l 658 1099 q 671 1111 660 1111 l 805 1111 q 816 1099 816 1109 l 816 84 q 805 72 816 72 l 671 72 q 658 84 658 72 l 658 512 l 230 512 l 230 84 q 218 72 230 72 l 83 72 q 71 84 71 72 l 71 1099 q 83 1111 73 1111 z "},"I":{"ha":850,"x_min":215,"x_max":668,"o":"m 227 1113 l 656 1113 q 668 1101 668 1111 l 668 966 q 656 954 668 954 l 521 954 l 521 232 l 656 232 q 668 220 668 230 l 668 85 q 656 73 668 73 l 227 73 q 215 85 215 73 l 215 220 q 227 232 217 232 l 362 232 l 362 954 l 227 954 q 215 966 215 954 l 215 1101 q 227 1113 217 1113 z "},"J":{"ha":850,"x_min":69,"x_max":813,"o":"m 374 1111 l 802 1111 q 813 1099 813 1109 l 813 965 q 802 952 813 952 l 667 952 l 667 233 q 655 221 667 221 l 521 221 l 521 86 q 509 74 521 74 l 228 74 q 216 86 216 74 l 216 221 l 81 221 q 69 233 69 221 l 69 367 q 81 379 71 379 l 216 379 q 228 367 228 377 l 228 233 l 509 233 l 509 952 l 374 952 q 362 965 362 952 l 362 1099 q 374 1111 364 1111 z "},"K":{"ha":850,"x_min":69,"x_max":814,"o":"m 81 1111 l 216 1111 q 228 1099 228 1109 l 228 672 l 362 672 l 362 806 q 375 818 364 818 l 509 818 l 509 952 q 521 964 511 964 l 656 964 l 656 1099 q 668 1111 658 1111 l 802 1111 q 814 1099 814 1109 l 814 964 q 802 952 814 952 l 668 952 l 668 818 q 656 806 668 806 l 521 806 l 521 672 q 509 660 521 660 l 375 660 l 375 525 l 509 525 q 521 513 521 523 l 521 379 l 656 379 q 668 366 668 377 l 668 232 l 802 232 q 814 220 814 230 l 814 85 q 802 73 814 73 l 668 73 q 656 85 656 73 l 656 220 l 521 220 q 509 232 509 220 l 509 366 l 375 366 q 362 379 362 366 l 362 513 l 228 513 l 228 85 q 216 73 228 73 l 81 73 q 69 85 69 73 l 69 1099 q 81 1111 71 1111 z "},"L":{"ha":850,"x_min":61,"x_max":808,"o":"m 72 1111 l 207 1111 q 219 1099 219 1109 l 219 229 l 796 229 q 808 217 808 228 l 808 82 q 796 70 808 70 l 72 70 q 61 82 61 70 l 61 1099 q 72 1111 63 1111 z "},"M":{"ha":850,"x_min":69,"x_max":815,"o":"m 81 1110 l 216 1110 q 228 1098 228 1108 l 228 963 l 363 963 q 375 951 375 961 l 375 816 l 510 816 l 510 951 q 522 963 512 963 l 657 963 l 657 1098 q 669 1110 659 1110 l 804 1110 q 815 1098 815 1108 l 815 82 q 804 70 815 70 l 669 70 q 657 82 657 70 l 657 805 l 522 805 l 522 523 q 510 511 522 511 l 375 511 q 363 523 363 511 l 363 805 l 228 805 l 228 82 q 216 70 228 70 l 81 70 q 69 82 69 70 l 69 1098 q 81 1110 71 1110 z "},"N":{"ha":850,"x_min":69,"x_max":817,"o":"m 81 1113 l 216 1113 q 229 1101 229 1111 l 229 819 l 363 819 q 376 807 376 817 l 376 672 l 511 672 q 523 660 523 670 l 523 525 l 658 525 l 658 1101 q 670 1113 660 1113 l 805 1113 q 817 1101 817 1111 l 817 83 q 805 71 817 71 l 670 71 q 658 83 658 71 l 658 365 l 523 365 q 511 378 511 365 l 511 513 l 376 513 q 363 525 363 513 l 363 660 l 229 660 l 229 83 q 216 71 229 71 l 81 71 q 69 83 69 71 l 69 1101 q 81 1113 71 1113 z "},"O":{"ha":850,"x_min":68,"x_max":814,"o":"m 227 1112 l 656 1112 q 668 1100 668 1110 l 668 965 l 803 965 q 814 953 814 963 l 814 231 q 803 219 814 219 l 668 219 l 668 84 q 656 72 668 72 l 227 72 q 215 84 215 72 l 215 219 l 80 219 q 68 231 68 219 l 68 953 q 80 965 70 965 l 215 965 l 215 1100 q 227 1112 217 1112 m 227 953 l 227 231 l 656 231 l 656 953 l 227 953 z "},"P":{"ha":850,"x_min":68,"x_max":814,"o":"m 80 1110 l 656 1110 q 668 1098 668 1108 l 668 963 l 803 963 q 814 951 814 961 l 814 670 q 803 658 814 658 l 668 658 l 668 523 q 656 511 668 511 l 227 511 l 227 82 q 215 70 227 70 l 80 70 q 68 82 68 70 l 68 1098 q 80 1110 70 1110 m 227 951 l 227 670 l 656 670 l 656 951 l 227 951 z "},"Q":{"ha":850,"x_min":68,"x_max":813,"o":"m 227 1111 l 654 1111 q 666 1099 666 1109 l 666 965 l 801 965 q 813 952 813 963 l 813 379 q 801 367 813 367 l 666 367 l 666 233 l 801 233 q 813 221 813 231 l 813 86 q 801 74 813 74 l 666 74 q 654 86 654 74 l 654 221 l 520 221 l 520 86 q 508 74 520 74 l 227 74 q 215 86 215 74 l 215 221 l 80 221 q 68 233 68 221 l 68 952 q 80 965 70 965 l 215 965 l 215 1099 q 227 1111 216 1111 m 227 952 l 227 233 l 508 233 l 508 367 l 373 367 q 361 379 361 367 l 361 514 q 373 526 363 526 l 508 526 q 520 514 520 524 l 520 379 l 654 379 l 654 952 l 227 952 z "},"R":{"ha":850,"x_min":68,"x_max":813,"o":"m 80 1111 l 655 1111 q 668 1099 668 1109 l 668 964 l 802 964 q 813 952 813 962 l 813 672 q 802 659 813 659 l 668 659 l 668 525 q 655 512 668 512 l 521 512 l 521 378 l 655 378 q 668 366 668 376 l 668 231 l 802 231 q 813 219 813 229 l 813 84 q 802 72 813 72 l 668 72 q 655 84 655 72 l 655 219 l 521 219 q 508 231 508 219 l 508 366 l 374 366 q 362 378 362 366 l 362 512 l 227 512 l 227 84 q 215 72 227 72 l 80 72 q 68 84 68 72 l 68 1099 q 80 1111 70 1111 m 227 952 l 227 672 l 655 672 l 655 952 l 227 952 z "},"S":{"ha":850,"x_min":67,"x_max":813,"o":"m 226 1112 l 802 1112 q 813 1100 813 1110 l 813 965 q 802 953 813 953 l 226 953 l 226 672 l 655 672 q 667 660 667 670 l 667 525 l 802 525 q 813 513 813 523 l 813 231 q 802 219 813 219 l 667 219 l 667 84 q 655 72 667 72 l 79 72 q 67 84 67 72 l 67 219 q 79 231 69 231 l 655 231 l 655 513 l 226 513 q 214 525 214 513 l 214 660 l 79 660 q 67 672 67 660 l 67 953 q 79 965 69 965 l 214 965 l 214 1100 q 226 1112 216 1112 z "},"T":{"ha":850,"x_min":66,"x_max":813,"o":"m 78 1114 l 802 1114 q 813 1102 813 1112 l 813 967 q 802 955 813 955 l 520 955 l 520 85 q 507 73 520 73 l 373 73 q 360 85 360 73 l 360 955 l 78 955 q 66 967 66 955 l 66 1102 q 78 1114 68 1114 z "},"U":{"ha":850,"x_min":66,"x_max":812,"o":"m 78 1111 l 213 1111 q 225 1099 225 1109 l 225 232 l 653 232 l 653 1099 q 665 1111 655 1111 l 799 1111 q 812 1099 812 1109 l 812 232 q 799 220 812 220 l 665 220 l 665 85 q 653 73 665 73 l 225 73 q 213 85 213 73 l 213 220 l 78 220 q 66 232 66 220 l 66 1099 q 78 1111 68 1111 z "},"V":{"ha":850,"x_min":68,"x_max":812,"o":"m 80 1109 l 214 1109 q 227 1097 227 1107 l 227 378 l 361 378 q 373 366 373 376 l 373 232 l 507 232 l 507 366 q 519 378 509 378 l 654 378 l 654 1097 q 666 1109 655 1109 l 800 1109 q 812 1097 812 1107 l 812 378 q 800 366 812 366 l 666 366 l 666 232 q 654 219 666 219 l 519 219 l 519 85 q 507 73 519 73 l 373 73 q 361 85 361 73 l 361 219 l 227 219 q 214 232 214 219 l 214 366 l 80 366 q 68 378 68 366 l 68 1097 q 80 1109 70 1109 z "},"W":{"ha":850,"x_min":67,"x_max":811,"o":"m 79 1111 l 213 1111 q 226 1099 226 1109 l 226 234 l 360 234 l 360 661 q 372 673 362 673 l 506 673 q 518 661 518 671 l 518 234 l 653 234 l 653 1099 q 665 1111 654 1111 l 799 1111 q 811 1099 811 1109 l 811 234 q 799 221 811 221 l 665 221 l 665 87 q 653 75 665 75 l 518 75 q 506 87 506 75 l 506 221 l 372 221 l 372 87 q 360 75 372 75 l 226 75 q 213 87 213 75 l 213 221 l 79 221 q 67 234 67 221 l 67 1099 q 79 1111 69 1111 z "},"X":{"ha":850,"x_min":69,"x_max":816,"o":"m 81 1111 l 216 1111 q 228 1099 228 1109 l 228 817 l 363 817 q 376 805 376 815 l 376 671 l 510 671 l 510 805 q 523 817 512 817 l 657 817 l 657 1099 q 670 1111 659 1111 l 804 1111 q 816 1099 816 1109 l 816 817 q 804 805 816 805 l 670 805 l 670 671 q 657 658 670 658 l 523 658 l 523 524 l 657 524 q 670 511 670 522 l 670 377 l 804 377 q 816 364 816 375 l 816 82 q 804 70 816 70 l 670 70 q 657 82 657 70 l 657 364 l 523 364 q 510 377 510 364 l 510 511 l 376 511 l 376 377 q 363 364 376 364 l 228 364 l 228 82 q 216 70 228 70 l 81 70 q 69 82 69 70 l 69 364 q 81 377 71 377 l 216 377 l 216 511 q 228 524 218 524 l 363 524 l 363 658 l 228 658 q 216 671 216 658 l 216 805 l 81 805 q 69 817 69 805 l 69 1099 q 81 1111 71 1111 z "},"Y":{"ha":850,"x_min":68,"x_max":813,"o":"m 80 1113 l 215 1113 q 227 1101 227 1112 l 227 674 l 361 674 q 374 662 374 672 l 374 528 l 508 528 l 508 662 q 521 674 510 674 l 655 674 l 655 1101 q 667 1113 657 1113 l 802 1113 q 813 1101 813 1112 l 813 674 q 802 662 813 662 l 667 662 l 667 528 q 655 515 667 515 l 521 515 l 521 87 q 508 75 521 75 l 374 75 q 361 87 361 75 l 361 515 l 227 515 q 215 528 215 515 l 215 662 l 80 662 q 68 674 68 662 l 68 1101 q 80 1113 70 1113 z "},"Z":{"ha":850,"x_min":72,"x_max":817,"o":"m 84 1113 l 806 1113 q 817 1101 817 1111 l 817 819 q 806 808 817 808 l 672 808 l 672 674 q 659 661 672 661 l 525 661 l 525 527 q 512 514 525 514 l 378 514 l 378 380 q 366 368 378 368 l 231 368 l 231 233 l 806 233 q 817 221 817 231 l 817 86 q 806 74 817 74 l 84 74 q 72 86 72 74 l 72 368 q 84 380 74 380 l 219 380 l 219 514 q 231 527 221 527 l 366 527 l 366 661 q 378 674 368 674 l 512 674 l 512 808 q 525 819 514 819 l 659 819 l 659 954 l 84 954 q 72 966 72 954 l 72 1101 q 84 1113 74 1113 z "},"[":{"ha":850,"x_min":215,"x_max":668,"o":"m 227 1111 l 656 1111 q 668 1099 668 1109 l 668 964 q 656 952 668 952 l 374 952 l 374 230 l 656 230 q 668 218 668 228 l 668 83 q 656 71 668 71 l 227 71 q 215 83 215 71 l 215 1099 q 227 1111 217 1111 z "},"\\":{"ha":850,"x_min":67,"x_max":810,"o":"m 79 962 l 213 962 q 225 950 225 960 l 225 816 l 359 816 q 372 805 372 814 l 372 671 l 505 671 q 518 658 518 669 l 518 525 l 652 525 q 664 512 664 523 l 664 378 l 798 378 q 810 366 810 376 l 810 232 q 798 220 810 220 l 664 220 q 652 232 652 220 l 652 366 l 518 366 q 505 378 505 366 l 505 512 l 372 512 q 359 525 359 512 l 359 658 l 225 658 q 213 671 213 658 l 213 805 l 79 805 q 67 816 67 805 l 67 950 q 79 962 69 962 z "},"]":{"ha":850,"x_min":218,"x_max":670,"o":"m 230 1111 l 658 1111 q 670 1099 670 1109 l 670 86 q 658 74 670 74 l 230 74 q 218 86 218 74 l 218 221 q 230 233 220 233 l 511 233 l 511 952 l 230 952 q 218 964 218 952 l 218 1099 q 230 1111 220 1111 z "},"^":{"ha":850,"x_min":72,"x_max":807,"o":"m 373 1118 l 506 1118 q 518 1106 518 1116 l 518 973 l 650 973 q 663 961 663 971 l 663 829 l 795 829 q 807 817 807 827 l 807 685 q 795 673 807 673 l 663 673 q 650 685 650 673 l 650 817 l 518 817 q 506 829 506 817 l 506 961 l 373 961 l 373 829 q 361 817 373 817 l 229 817 l 229 685 q 217 673 229 673 l 84 673 q 72 685 72 673 l 72 817 q 84 829 74 829 l 217 829 l 217 961 q 229 973 219 973 l 361 973 l 361 1106 q 373 1118 363 1118 z "},"_":{"ha":850,"x_min":71,"x_max":812,"o":"m 83 222 l 800 222 q 812 210 812 220 l 812 76 q 800 64 812 64 l 83 64 q 71 76 71 64 l 71 210 q 83 222 73 222 z "},"`":{"ha":850,"x_min":365,"x_max":671,"o":"m 377 1117 l 512 1117 q 524 1105 524 1115 l 524 970 l 659 970 q 671 958 671 968 l 671 823 q 659 812 671 812 l 524 812 q 512 823 512 812 l 512 958 l 377 958 q 365 970 365 958 l 365 1105 q 377 1117 367 1117 z "},"a":{"ha":850,"x_min":72,"x_max":813,"o":"m 230 812 l 655 812 q 667 800 667 810 l 667 666 l 801 666 q 813 654 813 664 l 813 83 q 801 71 813 71 l 230 71 q 218 83 218 71 l 218 217 l 84 217 q 72 229 72 217 l 72 363 q 84 375 74 375 l 218 375 l 218 508 q 230 520 220 520 l 655 520 l 655 654 l 230 654 q 218 666 218 654 l 218 800 q 230 812 220 812 m 230 363 l 230 229 l 655 229 l 655 363 l 230 363 z "},"b":{"ha":850,"x_min":67,"x_max":812,"o":"m 79 1111 l 214 1111 q 226 1099 226 1109 l 226 672 l 360 672 l 360 807 q 372 818 362 818 l 653 818 q 665 807 665 816 l 665 672 l 800 672 q 812 660 812 671 l 812 233 q 800 221 812 221 l 665 221 l 665 86 q 653 74 665 74 l 79 74 q 67 86 67 74 l 67 1099 q 79 1111 69 1111 m 372 660 l 372 526 q 360 514 372 514 l 226 514 l 226 233 l 653 233 l 653 660 l 372 660 z "},"c":{"ha":850,"x_min":71,"x_max":811,"o":"m 229 812 l 653 812 q 665 800 665 810 l 665 666 q 653 654 665 654 l 229 654 l 229 230 l 653 230 l 653 363 q 665 375 655 375 l 799 375 q 811 363 811 373 l 811 230 q 799 218 811 218 l 665 218 l 665 84 q 653 72 665 72 l 229 72 q 217 84 217 72 l 217 218 l 83 218 q 71 230 71 218 l 71 654 q 83 666 73 666 l 217 666 l 217 800 q 229 812 218 812 z "},"d":{"ha":850,"x_min":70,"x_max":815,"o":"m 669 1108 l 803 1108 q 815 1096 815 1106 l 815 82 q 803 70 815 70 l 229 70 q 217 82 217 70 l 217 217 l 82 217 q 70 229 70 217 l 70 657 q 82 669 72 669 l 217 669 l 217 803 q 229 815 219 815 l 510 815 q 522 803 522 813 l 522 669 l 657 669 l 657 1096 q 669 1108 659 1108 m 229 657 l 229 229 l 657 229 l 657 510 l 522 510 q 510 522 510 510 l 510 657 l 229 657 z "},"e":{"ha":850,"x_min":71,"x_max":811,"o":"m 229 811 l 653 811 q 665 799 665 809 l 665 665 l 799 665 q 811 653 811 664 l 811 374 q 799 362 811 362 l 229 362 l 229 229 l 653 229 q 665 217 665 227 l 665 83 q 653 71 665 71 l 229 71 q 217 83 217 71 l 217 217 l 83 217 q 71 229 71 217 l 71 653 q 83 665 73 665 l 217 665 l 217 799 q 229 811 218 811 m 229 653 l 229 520 l 653 520 l 653 653 l 229 653 z "},"f":{"ha":850,"x_min":65,"x_max":812,"o":"m 371 1112 l 653 1112 q 665 1100 665 1110 l 665 965 l 800 965 q 812 953 812 963 l 812 818 q 800 807 812 807 l 665 807 q 653 818 653 807 l 653 953 l 371 953 l 371 672 l 506 672 q 518 660 518 670 l 518 525 q 506 513 518 513 l 371 513 l 371 84 q 359 72 371 72 l 224 72 q 212 84 212 72 l 212 513 l 77 513 q 65 525 65 513 l 65 660 q 77 672 67 672 l 212 672 l 212 953 q 224 965 214 965 l 359 965 l 359 1100 q 371 1112 361 1112 z "},"g":{"ha":850,"x_min":74,"x_max":809,"o":"m 231 944 l 796 944 q 809 933 809 942 l 809 223 q 796 210 809 210 l 664 210 l 664 78 q 652 66 664 66 l 231 66 q 218 78 218 66 l 218 210 q 231 223 220 223 l 652 223 l 652 355 l 231 355 q 218 367 218 355 l 218 499 l 86 499 q 74 512 74 499 l 74 788 q 86 801 76 801 l 218 801 l 218 933 q 231 944 220 944 m 231 788 l 231 512 l 652 512 l 652 788 l 231 788 z "},"h":{"ha":850,"x_min":67,"x_max":813,"o":"m 79 1111 l 214 1111 q 226 1099 226 1110 l 226 672 l 360 672 l 360 807 q 373 818 362 818 l 654 818 q 666 807 666 816 l 666 672 l 801 672 q 813 660 813 670 l 813 85 q 801 73 813 73 l 666 73 q 654 85 654 73 l 654 660 l 373 660 l 373 526 q 360 513 373 513 l 226 513 l 226 85 q 214 73 226 73 l 79 73 q 67 85 67 73 l 67 1099 q 79 1111 69 1111 z "},"i":{"ha":850,"x_min":215,"x_max":668,"o":"m 374 1113 l 509 1113 q 521 1101 521 1111 l 521 966 q 509 954 521 954 l 374 954 q 362 966 362 954 l 362 1101 q 374 1113 364 1113 m 227 819 l 509 819 q 521 808 521 817 l 521 233 l 655 233 q 668 221 668 231 l 668 86 q 655 74 668 74 l 227 74 q 215 86 215 74 l 215 221 q 227 233 217 233 l 362 233 l 362 661 l 227 661 q 215 674 215 661 l 215 808 q 227 819 217 819 z "},"j":{"ha":850,"x_min":71,"x_max":671,"o":"m 524 1111 l 658 1111 q 671 1099 671 1109 l 671 964 q 658 952 671 952 l 524 952 q 511 964 511 952 l 511 1099 q 524 1111 513 1111 m 377 817 l 658 817 q 671 806 671 815 l 671 231 q 658 219 671 219 l 524 219 l 524 84 q 511 72 524 72 l 230 72 q 218 84 218 72 l 218 219 l 83 219 q 71 231 71 219 l 71 366 q 83 378 73 378 l 218 378 q 230 366 230 376 l 230 231 l 511 231 l 511 659 l 377 659 q 365 672 365 659 l 365 806 q 377 817 367 817 z "},"k":{"ha":850,"x_min":66,"x_max":665,"o":"m 78 1110 l 213 1110 q 225 1098 225 1108 l 225 524 l 359 524 l 359 659 q 372 671 361 671 l 506 671 l 506 805 q 518 817 508 817 l 653 817 q 665 805 665 815 l 665 671 q 653 659 665 659 l 518 659 l 518 524 q 506 512 518 512 l 372 512 l 372 378 l 506 378 q 518 365 518 376 l 518 231 l 653 231 q 665 219 665 229 l 665 84 q 653 72 665 72 l 518 72 q 506 84 506 72 l 506 219 l 372 219 q 359 231 359 219 l 359 365 l 225 365 l 225 84 q 213 72 225 72 l 78 72 q 66 84 66 72 l 66 1098 q 78 1110 68 1110 z "},"l":{"ha":850,"x_min":213,"x_max":666,"o":"m 225 1111 l 507 1111 q 519 1099 519 1109 l 519 231 l 653 231 q 666 219 666 229 l 666 84 q 653 72 666 72 l 225 72 q 213 84 213 72 l 213 219 q 225 231 215 231 l 360 231 l 360 952 l 225 952 q 213 964 213 952 l 213 1099 q 225 1111 215 1111 z "},"m":{"ha":850,"x_min":71,"x_max":810,"o":"m 83 812 l 362 812 q 374 800 374 810 l 374 667 l 507 667 l 507 800 q 519 812 509 812 l 652 812 q 665 800 665 810 l 665 667 l 798 667 q 810 654 810 665 l 810 85 q 798 73 810 73 l 665 73 q 652 85 652 73 l 652 654 l 519 654 l 519 376 q 507 364 519 364 l 374 364 q 362 376 362 364 l 362 654 l 229 654 l 229 85 q 216 73 229 73 l 83 73 q 71 85 71 73 l 71 800 q 83 812 73 812 z "},"n":{"ha":850,"x_min":70,"x_max":809,"o":"m 82 812 l 215 812 q 228 800 228 810 l 228 667 l 361 667 l 361 800 q 373 812 363 812 l 651 812 q 664 800 664 810 l 664 667 l 797 667 q 809 654 809 665 l 809 85 q 797 73 809 73 l 664 73 q 651 85 651 73 l 651 654 l 373 654 l 373 521 q 361 509 373 509 l 228 509 l 228 85 q 215 73 228 73 l 82 73 q 70 85 70 73 l 70 800 q 82 812 72 812 z "},"o":{"ha":850,"x_min":72,"x_max":811,"o":"m 230 811 l 653 811 q 666 799 666 809 l 666 666 l 799 666 q 811 653 811 664 l 811 230 q 799 217 811 217 l 666 217 l 666 84 q 653 72 666 72 l 230 72 q 217 84 217 72 l 217 217 l 84 217 q 72 230 72 217 l 72 653 q 84 666 74 666 l 217 666 l 217 799 q 230 811 219 811 m 230 653 l 230 230 l 653 230 l 653 653 l 230 653 z "},"p":{"ha":850,"x_min":70,"x_max":812,"o":"m 82 813 l 654 813 q 666 802 666 812 l 666 668 l 800 668 q 812 656 812 666 l 812 522 q 800 510 812 510 l 666 510 l 666 376 q 654 364 666 364 l 228 364 l 228 84 q 216 72 228 72 l 82 72 q 70 84 70 72 l 70 802 q 82 813 72 813 m 228 656 l 228 522 l 654 522 l 654 656 l 228 656 z "},"q":{"ha":850,"x_min":72,"x_max":813,"o":"m 230 813 l 509 813 q 521 802 521 812 l 521 668 l 655 668 l 655 802 q 667 813 657 813 l 801 813 q 813 802 813 812 l 813 85 q 801 73 813 73 l 667 73 q 655 85 655 73 l 655 365 l 230 365 q 218 377 218 365 l 218 510 l 84 510 q 72 522 72 510 l 72 656 q 84 668 74 668 l 218 668 l 218 802 q 230 813 220 813 m 230 656 l 230 522 l 509 522 l 509 656 l 230 656 z "},"r":{"ha":850,"x_min":73,"x_max":810,"o":"m 85 809 l 218 809 q 230 797 230 807 l 230 664 l 363 664 l 363 797 q 375 809 365 809 l 653 809 q 665 797 665 807 l 665 664 l 798 664 q 810 652 810 662 l 810 519 q 798 507 810 507 l 665 507 q 653 519 653 507 l 653 652 l 375 652 l 375 519 q 363 507 375 507 l 230 507 l 230 84 q 218 72 230 72 l 85 72 q 73 84 73 72 l 73 797 q 85 809 75 809 z "},"s":{"ha":850,"x_min":71,"x_max":815,"o":"m 230 814 l 657 814 q 669 803 669 813 l 669 668 q 657 656 669 656 l 230 656 l 230 522 l 657 522 q 669 510 669 520 l 669 375 l 804 375 q 815 363 815 373 l 815 229 q 804 217 815 217 l 669 217 l 669 82 q 657 70 669 70 l 83 70 q 71 82 71 70 l 71 217 q 83 229 73 229 l 657 229 l 657 363 l 230 363 q 218 375 218 363 l 218 510 l 83 510 q 71 522 71 510 l 71 656 q 83 668 73 668 l 218 668 l 218 803 q 230 814 219 814 z "},"t":{"ha":850,"x_min":69,"x_max":816,"o":"m 228 1113 l 363 1113 q 376 1101 376 1111 l 376 819 l 510 819 q 523 807 523 817 l 523 673 q 510 660 523 660 l 376 660 l 376 231 l 657 231 l 657 366 q 670 379 659 379 l 804 379 q 816 366 816 377 l 816 231 q 804 219 816 219 l 670 219 l 670 84 q 657 72 670 72 l 376 72 q 363 84 363 72 l 363 219 l 228 219 q 216 231 216 219 l 216 660 l 81 660 q 69 673 69 660 l 69 807 q 81 819 71 819 l 216 819 l 216 1101 q 228 1113 218 1113 z "},"u":{"ha":850,"x_min":69,"x_max":808,"o":"m 81 811 l 214 811 q 227 799 227 809 l 227 230 l 505 230 l 505 363 q 517 375 507 375 l 650 375 l 650 799 q 663 811 652 811 l 796 811 q 808 799 808 809 l 808 84 q 796 72 808 72 l 663 72 q 650 84 650 72 l 650 217 l 517 217 l 517 84 q 505 72 517 72 l 227 72 q 214 84 214 72 l 214 217 l 81 217 q 69 230 69 217 l 69 799 q 81 811 71 811 z "},"v":{"ha":850,"x_min":71,"x_max":810,"o":"m 83 812 l 216 812 q 229 800 229 810 l 229 376 l 362 376 q 374 364 374 374 l 374 231 l 507 231 l 507 364 q 519 376 509 376 l 652 376 l 652 800 q 665 812 654 812 l 798 812 q 810 800 810 810 l 810 376 q 798 364 810 364 l 665 364 l 665 231 q 652 218 665 218 l 519 218 l 519 85 q 507 73 519 73 l 374 73 q 362 85 362 73 l 362 218 l 229 218 q 216 231 216 218 l 216 364 l 83 364 q 71 376 71 364 l 71 800 q 83 812 73 812 z "},"w":{"ha":850,"x_min":72,"x_max":813,"o":"m 84 809 l 218 809 q 230 797 230 807 l 230 226 l 364 226 l 364 505 q 376 517 365 517 l 509 517 q 521 505 521 516 l 521 226 l 655 226 l 655 797 q 667 809 657 809 l 801 809 q 813 797 813 807 l 813 226 q 801 214 813 214 l 667 214 l 667 80 q 655 68 667 68 l 521 68 q 509 80 509 68 l 509 214 l 376 214 l 376 80 q 364 68 376 68 l 230 68 q 218 80 218 68 l 218 214 l 84 214 q 72 226 72 214 l 72 797 q 84 809 74 809 z "},"x":{"ha":850,"x_min":70,"x_max":811,"o":"m 82 814 l 216 814 q 228 803 228 813 l 228 669 l 362 669 q 374 657 374 667 l 374 523 l 507 523 l 507 657 q 519 669 509 669 l 653 669 l 653 803 q 665 814 655 814 l 799 814 q 811 803 811 813 l 811 669 q 799 657 811 657 l 665 657 l 665 523 q 653 511 665 511 l 519 511 l 519 378 l 653 378 q 665 366 665 376 l 665 232 l 799 232 q 811 220 811 230 l 811 86 q 799 74 811 74 l 665 74 q 653 86 653 74 l 653 220 l 519 220 q 507 232 507 220 l 507 366 l 374 366 l 374 232 q 362 220 374 220 l 228 220 l 228 86 q 216 74 228 74 l 82 74 q 70 86 70 74 l 70 220 q 82 232 72 232 l 216 232 l 216 366 q 228 378 218 378 l 362 378 l 362 511 l 228 511 q 216 523 216 511 l 216 657 l 82 657 q 70 669 70 657 l 70 803 q 82 814 72 814 z "},"y":{"ha":850,"x_min":70,"x_max":810,"o":"m 82 812 l 216 812 q 228 800 228 810 l 228 521 l 652 521 l 652 800 q 664 812 654 812 l 798 812 q 810 800 810 810 l 810 230 q 798 218 810 218 l 664 218 l 664 84 q 652 72 664 72 l 228 72 q 216 84 216 72 l 216 218 q 228 230 217 230 l 652 230 l 652 363 l 228 363 q 216 375 216 363 l 216 509 l 82 509 q 70 521 70 509 l 70 800 q 82 812 72 812 z "},"z":{"ha":850,"x_min":67,"x_max":813,"o":"m 79 813 l 801 813 q 813 802 813 812 l 813 667 q 801 655 813 655 l 666 655 l 666 521 q 654 508 666 508 l 520 508 l 520 374 q 507 361 520 361 l 373 361 l 373 227 l 801 227 q 813 215 813 225 l 813 80 q 801 68 813 68 l 79 68 q 67 80 67 68 l 67 215 q 79 227 69 227 l 214 227 l 214 361 q 226 374 216 374 l 360 374 l 360 508 q 373 521 362 521 l 507 521 l 507 655 l 79 655 q 67 667 67 655 l 67 802 q 79 813 69 813 z "},"{":{"ha":850,"x_min":111,"x_max":563,"o":"m 417 1109 l 551 1109 q 563 1097 563 1107 l 563 962 q 551 950 563 950 l 417 950 l 417 670 q 405 657 417 657 l 270 657 l 270 523 l 405 523 q 417 510 417 521 l 417 229 l 551 229 q 563 217 563 227 l 563 82 q 551 70 563 70 l 417 70 q 405 82 405 70 l 405 217 l 270 217 q 258 229 258 217 l 258 510 l 123 510 q 111 523 111 510 l 111 657 q 123 670 113 670 l 258 670 l 258 950 q 270 962 260 962 l 405 962 l 405 1097 q 417 1109 407 1109 z "},"|":{"ha":850,"x_min":362,"x_max":521,"o":"m 374 1108 l 508 1108 q 521 1096 521 1106 l 521 84 q 508 72 521 72 l 374 72 q 362 84 362 72 l 362 1096 q 374 1108 364 1108 z "},"}":{"ha":850,"x_min":318,"x_max":769,"o":"m 330 1110 l 464 1110 q 477 1098 477 1108 l 477 964 l 611 964 q 623 951 623 962 l 623 672 l 757 672 q 769 660 769 670 l 769 525 q 757 513 769 513 l 623 513 l 623 233 q 611 220 623 220 l 477 220 l 477 86 q 464 74 477 74 l 330 74 q 318 86 318 74 l 318 220 q 330 233 320 233 l 464 233 l 464 513 q 477 525 466 525 l 611 525 l 611 660 l 477 660 q 464 672 464 660 l 464 951 l 330 951 q 318 964 318 951 l 318 1098 q 330 1110 320 1110 z "},"~":{"ha":850,"x_min":0,"x_max":848,"o":"m 151 660 l 419 660 q 430 648 430 658 l 430 520 l 697 520 l 697 648 q 708 660 699 660 l 836 660 q 848 648 848 658 l 848 520 q 836 509 848 509 l 708 509 l 708 381 q 697 369 708 369 l 430 369 q 419 381 419 369 l 419 509 l 151 509 l 151 381 q 140 369 151 369 l 12 369 q 0 381 0 369 l 0 509 q 12 520 2 520 l 140 520 l 140 648 q 151 660 141 660 z "},"¡":{"ha":850,"x_min":372,"x_max":509,"o":"m 372 72 l 372 208 l 509 208 l 509 72 l 372 72 m 372 222 l 372 359 l 509 359 l 509 222 l 372 222 m 372 373 l 372 510 l 509 510 l 509 373 l 372 373 m 372 523 l 372 660 l 509 660 l 509 523 l 372 523 m 372 823 l 372 961 l 509 961 l 509 823 l 372 823 z "},"¢":{"ha":850,"x_min":71,"x_max":810,"o":"m 372 72 l 372 208 l 509 208 l 509 72 l 372 72 m 221 222 l 221 359 l 358 359 l 358 222 l 221 222 m 372 222 l 372 359 l 509 359 l 509 222 l 372 222 m 522 222 l 522 359 l 659 359 l 659 222 l 522 222 m 71 372 l 71 509 l 207 509 l 207 372 l 71 372 m 372 373 l 372 510 l 508 510 l 508 373 l 372 373 m 673 373 l 673 510 l 810 510 l 810 373 l 673 373 m 71 523 l 71 660 l 207 660 l 207 523 l 71 523 m 372 523 l 372 660 l 508 660 l 508 523 l 372 523 m 71 674 l 71 810 l 207 810 l 207 674 l 71 674 m 372 674 l 372 810 l 508 810 l 508 674 l 372 674 m 221 823 l 221 960 l 358 960 l 358 823 l 221 823 m 372 823 l 372 960 l 508 960 l 508 823 l 372 823 m 522 823 l 522 960 l 659 960 l 659 823 l 522 823 m 372 974 l 372 1111 l 508 1111 l 508 974 l 372 974 z "},"£":{"ha":850,"x_min":71,"x_max":810,"o":"m 221 72 l 221 208 l 358 208 l 358 72 l 221 72 m 372 72 l 372 208 l 509 208 l 509 72 l 372 72 m 522 72 l 522 208 l 659 208 l 659 72 l 522 72 m 673 72 l 673 208 l 810 208 l 810 72 l 673 72 m 221 222 l 221 359 l 358 359 l 358 222 l 221 222 m 221 373 l 221 509 l 358 509 l 358 373 l 221 373 m 71 523 l 71 660 l 207 660 l 207 523 l 71 523 m 221 523 l 221 660 l 358 660 l 358 523 l 221 523 m 372 523 l 372 660 l 508 660 l 508 523 l 372 523 m 522 523 l 522 660 l 659 660 l 659 523 l 522 523 m 221 674 l 221 810 l 358 810 l 358 674 l 221 674 m 221 823 l 221 960 l 358 960 l 358 823 l 221 823 m 522 823 l 522 960 l 659 960 l 659 823 l 522 823 m 372 974 l 372 1111 l 508 1111 l 508 974 l 372 974 z "},"¤":{"ha":850,"x_min":71,"x_max":810,"o":"m 71 72 l 71 208 l 207 208 l 207 72 l 71 72 m 673 72 l 673 208 l 810 208 l 810 72 l 673 72 m 221 222 l 221 359 l 358 359 l 358 222 l 221 222 m 372 222 l 372 359 l 508 359 l 508 222 l 372 222 m 522 222 l 522 359 l 659 359 l 659 222 l 522 222 m 71 372 l 71 509 l 207 509 l 207 372 l 71 372 m 673 373 l 673 510 l 810 510 l 810 373 l 673 373 m 71 523 l 71 660 l 207 660 l 207 523 l 71 523 m 673 523 l 673 660 l 810 660 l 810 523 l 673 523 m 71 674 l 71 810 l 207 810 l 207 674 l 71 674 m 673 674 l 673 811 l 810 811 l 810 674 l 673 674 m 221 823 l 221 960 l 358 960 l 358 823 l 221 823 m 372 823 l 372 960 l 508 960 l 508 823 l 372 823 m 522 823 l 522 960 l 659 960 l 659 823 l 522 823 m 71 973 l 71 1111 l 207 1111 l 207 973 l 71 973 m 673 974 l 673 1111 l 810 1111 l 810 974 l 673 974 z "},"¥":{"ha":850,"x_min":71,"x_max":810,"o":"m 372 72 l 372 208 l 508 208 l 508 72 l 372 72 m 71 222 l 71 358 l 207 358 l 207 222 l 71 222 m 221 222 l 221 359 l 358 359 l 358 222 l 221 222 m 372 222 l 372 359 l 508 359 l 508 222 l 372 222 m 522 222 l 522 359 l 659 359 l 659 222 l 522 222 m 673 222 l 673 359 l 810 359 l 810 222 l 673 222 m 372 373 l 372 509 l 508 509 l 508 373 l 372 373 m 71 523 l 71 660 l 207 660 l 207 523 l 71 523 m 221 523 l 221 660 l 358 660 l 358 523 l 221 523 m 372 523 l 372 660 l 508 660 l 508 523 l 372 523 m 522 523 l 522 660 l 659 660 l 659 523 l 522 523 m 673 523 l 673 660 l 810 660 l 810 523 l 673 523 m 372 674 l 372 810 l 508 810 l 508 674 l 372 674 m 221 823 l 221 960 l 358 960 l 358 823 l 221 823 m 522 823 l 522 960 l 659 960 l 659 823 l 522 823 m 71 973 l 71 1111 l 207 1111 l 207 973 l 71 973 m 673 974 l 673 1111 l 810 1111 l 810 974 l 673 974 z "},"¦":{"ha":850,"x_min":372,"x_max":509,"o":"m 372 72 l 372 208 l 509 208 l 509 72 l 372 72 m 372 222 l 372 359 l 509 359 l 509 222 l 372 222 m 372 373 l 372 510 l 509 510 l 509 373 l 372 373 m 372 674 l 372 811 l 509 811 l 509 674 l 372 674 m 372 823 l 372 960 l 509 960 l 509 823 l 372 823 m 372 974 l 372 1111 l 509 1111 l 509 974 l 372 974 z "},"§":{"ha":850,"x_min":71,"x_max":810,"o":"m 221 72 l 221 208 l 358 208 l 358 72 l 221 72 m 372 72 l 372 208 l 508 208 l 508 72 l 372 72 m 522 72 l 522 208 l 659 208 l 659 72 l 522 72 m 673 222 l 673 359 l 810 359 l 810 222 l 673 222 m 372 373 l 372 510 l 508 510 l 508 373 l 372 373 m 522 373 l 522 510 l 659 510 l 659 373 l 522 373 m 673 373 l 673 510 l 810 510 l 810 373 l 673 373 m 221 523 l 221 660 l 358 660 l 358 523 l 221 523 m 522 523 l 522 660 l 659 660 l 659 523 l 522 523 m 71 674 l 71 810 l 207 810 l 207 674 l 71 674 m 221 674 l 221 810 l 358 810 l 358 674 l 221 674 m 372 674 l 372 810 l 508 810 l 508 674 l 372 674 m 71 823 l 71 960 l 207 960 l 207 823 l 71 823 m 221 974 l 221 1111 l 358 1111 l 358 974 l 221 974 m 372 974 l 372 1111 l 508 1111 l 508 974 l 372 974 m 522 974 l 522 1111 l 659 1111 l 659 974 l 522 974 z "},"¨":{"ha":850,"x_min":71,"x_max":810,"o":"m 372 222 l 372 359 l 508 359 l 508 222 l 372 222 m 221 373 l 221 509 l 358 509 l 358 373 l 221 373 m 372 373 l 372 509 l 508 509 l 508 373 l 372 373 m 522 373 l 522 510 l 659 510 l 659 373 l 522 373 m 71 523 l 71 660 l 207 660 l 207 523 l 71 523 m 221 523 l 221 660 l 358 660 l 358 523 l 221 523 m 372 523 l 372 660 l 508 660 l 508 523 l 372 523 m 522 523 l 522 660 l 659 660 l 659 523 l 522 523 m 673 523 l 673 660 l 810 660 l 810 523 l 673 523 m 71 674 l 71 810 l 207 810 l 207 674 l 71 674 m 221 674 l 221 810 l 358 810 l 358 674 l 221 674 m 372 674 l 372 810 l 508 810 l 508 674 l 372 674 m 522 674 l 522 810 l 659 810 l 659 674 l 522 674 m 673 674 l 673 811 l 810 811 l 810 674 l 673 674 m 71 823 l 71 961 l 207 961 l 207 823 l 71 823 m 221 823 l 221 961 l 358 961 l 358 823 l 221 823 m 522 823 l 522 961 l 659 961 l 659 823 l 522 823 m 673 823 l 673 961 l 810 961 l 810 823 l 673 823 z "},"©":{"ha":850,"x_min":71,"x_max":810,"o":"m 221 72 l 221 208 l 358 208 l 358 72 l 221 72 m 372 72 l 372 208 l 508 208 l 508 72 l 372 72 m 522 72 l 522 208 l 659 208 l 659 72 l 522 72 m 71 222 l 71 358 l 207 358 l 207 222 l 71 222 m 673 222 l 673 359 l 810 359 l 810 222 l 673 222 m 71 372 l 71 509 l 207 509 l 207 372 l 71 372 m 372 373 l 372 509 l 508 509 l 508 373 l 372 373 m 673 373 l 673 510 l 810 510 l 810 373 l 673 373 m 71 523 l 71 660 l 207 660 l 207 523 l 71 523 m 221 523 l 221 660 l 358 660 l 358 523 l 221 523 m 673 523 l 673 660 l 810 660 l 810 523 l 673 523 m 71 673 l 71 810 l 207 810 l 207 673 l 71 673 m 372 674 l 372 810 l 508 810 l 508 674 l 372 674 m 673 674 l 673 811 l 810 811 l 810 674 l 673 674 m 71 823 l 71 960 l 207 960 l 207 823 l 71 823 m 673 823 l 673 960 l 810 960 l 810 823 l 673 823 m 221 974 l 221 1111 l 358 1111 l 358 974 l 221 974 m 372 974 l 372 1111 l 508 1111 l 508 974 l 372 974 m 522 974 l 522 1111 l 659 1111 l 659 974 l 522 974 z "},"ª":{"ha":850,"x_min":71,"x_max":659,"o":"m 71 72 l 71 208 l 207 208 l 207 72 l 71 72 m 221 72 l 221 208 l 358 208 l 358 72 l 221 72 m 372 72 l 372 208 l 508 208 l 508 72 l 372 72 m 523 72 l 523 208 l 659 208 l 659 72 l 523 72 m 71 222 l 71 359 l 207 359 l 207 222 l 71 222 m 522 222 l 522 359 l 659 359 l 659 222 l 522 222 m 71 372 l 71 509 l 207 509 l 207 372 l 71 372 m 522 373 l 522 510 l 659 510 l 659 373 l 522 373 m 71 523 l 71 660 l 207 660 l 207 523 l 71 523 m 522 523 l 522 660 l 659 660 l 659 523 l 522 523 m 71 674 l 71 810 l 207 810 l 207 674 l 71 674 m 221 674 l 221 810 l 358 810 l 358 674 l 221 674 m 372 674 l 372 810 l 508 810 l 508 674 l 372 674 m 522 674 l 522 811 l 659 811 l 659 674 l 522 674 m 221 823 l 221 960 l 358 960 l 358 823 l 221 823 m 221 974 l 221 1111 l 358 1111 l 358 974 l 221 974 z "},"«":{"ha":850,"x_min":71,"x_max":810,"o":"m 71 72 l 71 208 l 207 208 l 207 72 l 71 72 m 221 72 l 221 208 l 358 208 l 358 72 l 221 72 m 522 72 l 522 208 l 659 208 l 659 72 l 522 72 m 673 72 l 673 208 l 810 208 l 810 72 l 673 72 m 372 222 l 372 359 l 508 359 l 508 222 l 372 222 m 71 372 l 71 509 l 207 509 l 207 372 l 71 372 m 221 372 l 221 509 l 358 509 l 358 372 l 221 372 m 522 373 l 522 510 l 659 510 l 659 373 l 522 373 m 673 373 l 673 510 l 810 510 l 810 373 l 673 373 m 71 673 l 71 810 l 207 810 l 207 673 l 71 673 m 221 674 l 221 810 l 358 810 l 358 674 l 221 674 m 372 674 l 372 810 l 508 810 l 508 674 l 372 674 m 522 674 l 522 810 l 659 810 l 659 674 l 522 674 m 673 674 l 673 811 l 810 811 l 810 674 l 673 674 m 71 823 l 71 960 l 207 960 l 207 823 l 71 823 m 372 823 l 372 960 l 508 960 l 508 823 l 372 823 m 673 823 l 673 960 l 810 960 l 810 823 l 673 823 m 221 973 l 221 1111 l 358 1111 l 358 973 l 221 973 m 372 974 l 372 1111 l 508 1111 l 508 974 l 372 974 m 522 974 l 522 1111 l 659 1111 l 659 974 l 522 974 z "},"¬":{"ha":850,"x_min":71,"x_max":810,"o":"m 221 72 l 221 208 l 358 208 l 358 72 l 221 72 m 522 72 l 522 208 l 659 208 l 659 72 l 522 72 m 221 222 l 221 358 l 358 358 l 358 222 l 221 222 m 522 222 l 522 359 l 659 359 l 659 222 l 522 222 m 71 372 l 71 509 l 207 509 l 207 372 l 71 372 m 221 372 l 221 509 l 358 509 l 358 372 l 221 372 m 372 372 l 372 509 l 508 509 l 508 372 l 372 372 m 522 373 l 522 510 l 659 510 l 659 373 l 522 373 m 673 373 l 673 510 l 810 510 l 810 373 l 673 373 m 71 523 l 71 660 l 207 660 l 207 523 l 71 523 m 372 523 l 372 660 l 508 660 l 508 523 l 372 523 m 673 523 l 673 660 l 810 660 l 810 523 l 673 523 m 71 673 l 71 810 l 207 810 l 207 673 l 71 673 m 221 673 l 221 810 l 358 810 l 358 673 l 221 673 m 372 674 l 372 810 l 508 810 l 508 674 l 372 674 m 522 674 l 522 810 l 659 810 l 659 674 l 522 674 m 673 674 l 673 811 l 810 811 l 810 674 l 673 674 m 71 823 l 71 960 l 207 960 l 207 823 l 71 823 m 372 823 l 372 960 l 508 960 l 508 823 l 372 823 m 673 823 l 673 960 l 810 960 l 810 823 l 673 823 m 221 973 l 221 1111 l 358 1111 l 358 973 l 221 973 m 372 974 l 372 1111 l 508 1111 l 508 974 l 372 974 m 522 974 l 522 1111 l 659 1111 l 659 974 l 522 974 z "},"®":{"ha":850,"x_min":71,"x_max":810,"o":"m 372 222 l 372 359 l 509 359 l 509 222 l 372 222 m 522 222 l 522 359 l 659 359 l 659 222 l 522 222 m 673 222 l 673 359 l 810 359 l 810 222 l 673 222 m 372 373 l 372 509 l 509 509 l 509 373 l 372 373 m 522 373 l 522 510 l 659 510 l 659 373 l 522 373 m 673 373 l 673 510 l 810 510 l 810 373 l 673 373 m 372 523 l 372 660 l 508 660 l 508 523 l 372 523 m 522 523 l 522 660 l 659 660 l 659 523 l 522 523 m 673 523 l 673 660 l 810 660 l 810 523 l 673 523 m 372 823 l 372 960 l 508 960 l 508 823 l 372 823 m 522 823 l 522 960 l 659 960 l 659 823 l 522 823 m 71 974 l 71 1111 l 207 1111 l 207 974 l 71 974 m 372 974 l 372 1111 l 508 1111 l 508 974 l 372 974 m 522 974 l 522 1111 l 659 1111 l 659 974 l 522 974 z "},"¯":{"ha":850,"x_min":71,"x_max":810,"o":"m 71 72 l 71 208 l 208 208 l 208 72 l 71 72 m 71 222 l 71 359 l 208 359 l 208 222 l 71 222 m 71 373 l 71 510 l 208 510 l 208 373 l 71 373 m 221 523 l 221 660 l 358 660 l 358 523 l 221 523 m 221 674 l 221 811 l 358 811 l 358 674 l 221 674 m 372 823 l 372 960 l 509 960 l 509 823 l 372 823 m 522 974 l 522 1111 l 659 1111 l 659 974 l 522 974 m 673 974 l 673 1111 l 810 1111 l 810 974 l 673 974 z "},"ˉ":{"ha":850,"x_min":71,"x_max":810,"o":"m 71 72 l 71 208 l 208 208 l 208 72 l 71 72 m 71 222 l 71 359 l 208 359 l 208 222 l 71 222 m 71 373 l 71 510 l 208 510 l 208 373 l 71 373 m 221 523 l 221 660 l 358 660 l 358 523 l 221 523 m 221 674 l 221 811 l 358 811 l 358 674 l 221 674 m 372 823 l 372 960 l 509 960 l 509 823 l 372 823 m 522 974 l 522 1111 l 659 1111 l 659 974 l 522 974 m 673 974 l 673 1111 l 810 1111 l 810 974 l 673 974 z "},"°":{"ha":850,"x_min":71,"x_max":810,"o":"m 673 72 l 673 208 l 810 208 l 810 72 l 673 72 m 673 222 l 673 359 l 810 359 l 810 222 l 673 222 m 673 373 l 673 510 l 810 510 l 810 373 l 673 373 m 522 523 l 522 660 l 659 660 l 659 523 l 522 523 m 522 674 l 522 811 l 659 811 l 659 674 l 522 674 m 372 823 l 372 960 l 509 960 l 509 823 l 372 823 m 71 974 l 71 1111 l 208 1111 l 208 974 l 71 974 m 221 974 l 221 1111 l 358 1111 l 358 974 l 221 974 z "},"±":{"ha":850,"x_min":71,"x_max":810,"o":"m 71 72 l 71 208 l 207 208 l 207 72 l 71 72 m 221 72 l 221 208 l 358 208 l 358 72 l 221 72 m 372 72 l 372 208 l 509 208 l 509 72 l 372 72 m 522 72 l 522 208 l 659 208 l 659 72 l 522 72 m 673 72 l 673 208 l 810 208 l 810 72 l 673 72 m 372 373 l 372 510 l 508 510 l 508 373 l 372 373 m 372 523 l 372 660 l 508 660 l 508 523 l 372 523 m 71 674 l 71 810 l 207 810 l 207 674 l 71 674 m 221 674 l 221 810 l 358 810 l 358 674 l 221 674 m 372 674 l 372 810 l 508 810 l 508 674 l 372 674 m 522 674 l 522 811 l 659 811 l 659 674 l 522 674 m 673 674 l 673 811 l 810 811 l 810 674 l 673 674 m 372 823 l 372 960 l 508 960 l 508 823 l 372 823 m 372 974 l 372 1111 l 508 1111 l 508 974 l 372 974 z "},"²":{"ha":850,"x_min":71,"x_max":810,"o":"m 71 72 l 71 208 l 207 208 l 207 72 l 71 72 m 221 72 l 221 208 l 358 208 l 358 72 l 221 72 m 372 72 l 372 208 l 509 208 l 509 72 l 372 72 m 522 72 l 522 208 l 659 208 l 659 72 l 522 72 m 673 72 l 673 208 l 810 208 l 810 72 l 673 72 m 71 222 l 71 359 l 207 359 l 207 222 l 71 222 m 221 373 l 221 509 l 358 509 l 358 373 l 221 373 m 372 523 l 372 660 l 508 660 l 508 523 l 372 523 m 221 674 l 221 810 l 358 810 l 358 674 l 221 674 m 71 823 l 71 960 l 207 960 l 207 823 l 71 823 m 71 974 l 71 1111 l 207 1111 l 207 974 l 71 974 m 221 974 l 221 1111 l 358 1111 l 358 974 l 221 974 m 372 974 l 372 1111 l 508 1111 l 508 974 l 372 974 m 522 974 l 522 1111 l 659 1111 l 659 974 l 522 974 m 673 974 l 673 1111 l 810 1111 l 810 974 l 673 974 z "},"³":{"ha":850,"x_min":71,"x_max":810,"o":"m 71 72 l 71 208 l 207 208 l 207 72 l 71 72 m 673 72 l 673 208 l 810 208 l 810 72 l 673 72 m 71 222 l 71 359 l 207 359 l 207 222 l 71 222 m 673 222 l 673 359 l 810 359 l 810 222 l 673 222 m 71 372 l 71 509 l 207 509 l 207 372 l 71 372 m 673 373 l 673 510 l 810 510 l 810 373 l 673 373 m 71 523 l 71 660 l 207 660 l 207 523 l 71 523 m 673 523 l 673 660 l 810 660 l 810 523 l 673 523 m 71 674 l 71 810 l 207 810 l 207 674 l 71 674 m 673 674 l 673 811 l 810 811 l 810 674 l 673 674 m 71 823 l 71 960 l 207 960 l 207 823 l 71 823 m 673 823 l 673 960 l 810 960 l 810 823 l 673 823 m 71 973 l 71 1111 l 207 1111 l 207 973 l 71 973 m 221 974 l 221 1111 l 358 1111 l 358 974 l 221 974 m 372 974 l 372 1111 l 508 1111 l 508 974 l 372 974 m 522 974 l 522 1111 l 659 1111 l 659 974 l 522 974 m 673 974 l 673 1111 l 810 1111 l 810 974 l 673 974 z "},"´":{"ha":850,"x_min":71,"x_max":810,"o":"m 221 72 l 221 208 l 358 208 l 358 72 l 221 72 m 372 72 l 372 208 l 508 208 l 508 72 l 372 72 m 522 72 l 522 208 l 659 208 l 659 72 l 522 72 m 71 222 l 71 359 l 207 359 l 207 222 l 71 222 m 673 222 l 673 359 l 810 359 l 810 222 l 673 222 m 71 372 l 71 509 l 207 509 l 207 372 l 71 372 m 673 373 l 673 510 l 810 510 l 810 373 l 673 373 m 221 674 l 221 810 l 358 810 l 358 674 l 221 674 m 522 674 l 522 811 l 659 811 l 659 674 l 522 674 m 221 823 l 221 961 l 358 961 l 358 823 l 221 823 m 522 823 l 522 961 l 659 961 l 659 823 l 522 823 z "},"µ":{"ha":850,"x_min":71,"x_max":810,"o":"m 71 72 l 71 208 l 208 208 l 208 72 l 71 72 m 71 222 l 71 359 l 208 359 l 208 222 l 71 222 m 71 373 l 71 510 l 208 510 l 208 373 l 71 373 m 221 373 l 221 510 l 358 510 l 358 373 l 221 373 m 372 373 l 372 510 l 509 510 l 509 373 l 372 373 m 522 373 l 522 510 l 659 510 l 659 373 l 522 373 m 71 523 l 71 660 l 208 660 l 208 523 l 71 523 m 673 523 l 673 660 l 810 660 l 810 523 l 673 523 m 71 674 l 71 811 l 208 811 l 208 674 l 71 674 m 673 674 l 673 811 l 810 811 l 810 674 l 673 674 z "},"μ":{"ha":850,"x_min":71,"x_max":810,"o":"m 71 72 l 71 208 l 208 208 l 208 72 l 71 72 m 71 222 l 71 359 l 208 359 l 208 222 l 71 222 m 71 373 l 71 510 l 208 510 l 208 373 l 71 373 m 221 373 l 221 510 l 358 510 l 358 373 l 221 373 m 372 373 l 372 510 l 509 510 l 509 373 l 372 373 m 522 373 l 522 510 l 659 510 l 659 373 l 522 373 m 71 523 l 71 660 l 208 660 l 208 523 l 71 523 m 673 523 l 673 660 l 810 660 l 810 523 l 673 523 m 71 674 l 71 811 l 208 811 l 208 674 l 71 674 m 673 674 l 673 811 l 810 811 l 810 674 l 673 674 z "},"¶":{"ha":850,"x_min":71,"x_max":810,"o":"m 372 72 l 372 208 l 508 208 l 508 72 l 372 72 m 673 72 l 673 208 l 810 208 l 810 72 l 673 72 m 372 222 l 372 359 l 508 359 l 508 222 l 372 222 m 673 222 l 673 359 l 810 359 l 810 222 l 673 222 m 372 372 l 372 509 l 508 509 l 508 372 l 372 372 m 673 373 l 673 510 l 810 510 l 810 373 l 673 373 m 221 523 l 221 660 l 358 660 l 358 523 l 221 523 m 372 523 l 372 660 l 508 660 l 508 523 l 372 523 m 673 523 l 673 660 l 810 660 l 810 523 l 673 523 m 71 674 l 71 810 l 207 810 l 207 674 l 71 674 m 221 674 l 221 810 l 358 810 l 358 674 l 221 674 m 372 674 l 372 810 l 508 810 l 508 674 l 372 674 m 673 674 l 673 811 l 810 811 l 810 674 l 673 674 m 71 823 l 71 960 l 207 960 l 207 823 l 71 823 m 221 823 l 221 960 l 358 960 l 358 823 l 221 823 m 372 823 l 372 960 l 508 960 l 508 823 l 372 823 m 673 823 l 673 960 l 810 960 l 810 823 l 673 823 m 221 973 l 221 1111 l 358 1111 l 358 973 l 221 973 m 372 973 l 372 1111 l 508 1111 l 508 973 l 372 973 m 522 974 l 522 1111 l 659 1111 l 659 974 l 522 974 m 673 974 l 673 1111 l 810 1111 l 810 974 l 673 974 z "},"·":{"ha":850,"x_min":71,"x_max":810,"o":"m 71 72 l 71 208 l 207 208 l 207 72 l 71 72 m 673 72 l 673 208 l 810 208 l 810 72 l 673 72 m 71 222 l 71 359 l 207 359 l 207 222 l 71 222 m 673 222 l 673 359 l 810 359 l 810 222 l 673 222 m 221 373 l 221 510 l 358 510 l 358 373 l 221 373 m 372 373 l 372 510 l 508 510 l 508 373 l 372 373 m 522 373 l 522 510 l 659 510 l 659 373 l 522 373 m 221 674 l 221 810 l 358 810 l 358 674 l 221 674 m 522 674 l 522 811 l 659 811 l 659 674 l 522 674 m 221 823 l 221 961 l 358 961 l 358 823 l 221 823 m 522 823 l 522 961 l 659 961 l 659 823 l 522 823 z "},"∙":{"ha":850,"x_min":71,"x_max":810,"o":"m 71 72 l 71 208 l 207 208 l 207 72 l 71 72 m 673 72 l 673 208 l 810 208 l 810 72 l 673 72 m 71 222 l 71 359 l 207 359 l 207 222 l 71 222 m 673 222 l 673 359 l 810 359 l 810 222 l 673 222 m 221 373 l 221 510 l 358 510 l 358 373 l 221 373 m 372 373 l 372 510 l 508 510 l 508 373 l 372 373 m 522 373 l 522 510 l 659 510 l 659 373 l 522 373 m 221 674 l 221 810 l 358 810 l 358 674 l 221 674 m 522 674 l 522 811 l 659 811 l 659 674 l 522 674 m 221 823 l 221 961 l 358 961 l 358 823 l 221 823 m 522 823 l 522 961 l 659 961 l 659 823 l 522 823 z "},"¸":{"ha":850,"x_min":71,"x_max":810,"o":"m 71 72 l 71 208 l 207 208 l 207 72 l 71 72 m 221 72 l 221 208 l 358 208 l 358 72 l 221 72 m 372 72 l 372 208 l 508 208 l 508 72 l 372 72 m 522 72 l 522 208 l 659 208 l 659 72 l 522 72 m 673 72 l 673 208 l 810 208 l 810 72 l 673 72 m 71 222 l 71 358 l 207 358 l 207 222 l 71 222 m 673 222 l 673 359 l 810 359 l 810 222 l 673 222 m 71 372 l 71 509 l 207 509 l 207 372 l 71 372 m 673 373 l 673 510 l 810 510 l 810 373 l 673 373 m 71 523 l 71 660 l 207 660 l 207 523 l 71 523 m 673 523 l 673 660 l 810 660 l 810 523 l 673 523 m 71 673 l 71 810 l 207 810 l 207 673 l 71 673 m 673 674 l 673 811 l 810 811 l 810 674 l 673 674 m 71 823 l 71 960 l 207 960 l 207 823 l 71 823 m 673 823 l 673 960 l 810 960 l 810 823 l 673 823 m 71 973 l 71 1111 l 207 1111 l 207 973 l 71 973 m 221 974 l 221 1111 l 358 1111 l 358 974 l 221 974 m 372 974 l 372 1111 l 508 1111 l 508 974 l 372 974 m 522 974 l 522 1111 l 659 1111 l 659 974 l 522 974 m 673 974 l 673 1111 l 810 1111 l 810 974 l 673 974 z "},"¹":{"ha":850,"x_min":71,"x_max":810,"o":"m 71 72 l 71 208 l 207 208 l 207 72 l 71 72 m 221 72 l 221 208 l 358 208 l 358 72 l 221 72 m 372 72 l 372 208 l 508 208 l 508 72 l 372 72 m 522 72 l 522 208 l 659 208 l 659 72 l 522 72 m 673 72 l 673 208 l 810 208 l 810 72 l 673 72 m 372 222 l 372 359 l 508 359 l 508 222 l 372 222 m 71 372 l 71 509 l 207 509 l 207 372 l 71 372 m 221 372 l 221 509 l 358 509 l 358 372 l 221 372 m 372 372 l 372 509 l 508 509 l 508 372 l 372 372 m 522 373 l 522 510 l 659 510 l 659 373 l 522 373 m 673 373 l 673 510 l 810 510 l 810 373 l 673 373 m 372 523 l 372 660 l 508 660 l 508 523 l 372 523 m 71 673 l 71 810 l 207 810 l 207 673 l 71 673 m 221 673 l 221 810 l 358 810 l 358 673 l 221 673 m 372 674 l 372 810 l 508 810 l 508 674 l 372 674 m 522 674 l 522 810 l 659 810 l 659 674 l 522 674 m 673 674 l 673 811 l 810 811 l 810 674 l 673 674 m 372 823 l 372 960 l 508 960 l 508 823 l 372 823 m 71 973 l 71 1111 l 207 1111 l 207 973 l 71 973 m 221 973 l 221 1111 l 358 1111 l 358 973 l 221 973 m 372 973 l 372 1111 l 508 1111 l 508 973 l 372 973 m 522 974 l 522 1111 l 659 1111 l 659 974 l 522 974 m 673 974 l 673 1111 l 810 1111 l 810 974 l 673 974 z "},"º":{"ha":850,"x_min":222,"x_max":660,"o":"m 372 674 l 372 811 l 509 811 l 509 674 l 372 674 m 222 823 l 222 960 l 358 960 l 358 823 l 222 823 m 523 824 l 523 960 l 660 960 l 660 824 l 523 824 m 372 974 l 372 1111 l 509 1111 l 509 974 l 372 974 z "},"»":{"ha":850,"x_min":71,"x_max":810,"o":"m 71 1111 l 71 974 l 208 974 l 208 1111 l 71 1111 m 71 811 l 71 674 l 208 674 l 208 811 l 71 811 m 71 510 l 71 373 l 208 373 l 208 510 l 71 510 m 71 209 l 71 72 l 208 72 l 208 209 l 71 209 m 222 961 l 222 824 l 358 824 l 358 961 l 222 961 m 222 660 l 222 523 l 358 523 l 358 660 l 222 660 m 222 359 l 222 222 l 358 222 l 358 359 l 222 359 m 372 1111 l 372 974 l 509 974 l 509 1111 l 372 1111 m 372 811 l 372 674 l 509 674 l 509 811 l 372 811 m 372 510 l 372 373 l 509 373 l 509 510 l 372 510 m 372 209 l 372 72 l 509 72 l 509 209 l 372 209 m 523 961 l 523 824 l 660 824 l 660 961 l 523 961 m 523 660 l 523 523 l 660 523 l 660 660 l 523 660 m 523 359 l 523 222 l 660 222 l 660 359 l 523 359 m 673 1111 l 673 974 l 810 974 l 810 1111 l 673 1111 m 673 811 l 673 674 l 810 674 l 810 811 l 673 811 m 673 510 l 673 373 l 810 373 l 810 510 l 673 510 m 673 209 l 673 72 l 810 72 l 810 209 l 673 209 z "},"¼":{"ha":850,"x_min":71,"x_max":810,"o":"m 372 72 l 372 208 l 508 208 l 508 72 l 372 72 m 372 222 l 372 359 l 508 359 l 508 222 l 372 222 m 71 373 l 71 509 l 207 509 l 207 373 l 71 373 m 221 373 l 221 509 l 358 509 l 358 373 l 221 373 m 372 373 l 372 509 l 508 509 l 508 373 l 372 373 m 522 373 l 522 510 l 659 510 l 659 373 l 522 373 m 673 373 l 673 510 l 810 510 l 810 373 l 673 373 m 71 523 l 71 660 l 207 660 l 207 523 l 71 523 m 372 523 l 372 660 l 508 660 l 508 523 l 372 523 m 673 523 l 673 660 l 810 660 l 810 523 l 673 523 m 71 673 l 71 810 l 207 810 l 207 673 l 71 673 m 372 674 l 372 810 l 508 810 l 508 674 l 372 674 m 673 674 l 673 811 l 810 811 l 810 674 l 673 674 m 71 823 l 71 960 l 207 960 l 207 823 l 71 823 m 372 823 l 372 960 l 508 960 l 508 823 l 372 823 m 673 823 l 673 960 l 810 960 l 810 823 l 673 823 m 71 973 l 71 1111 l 207 1111 l 207 973 l 71 973 m 221 973 l 221 1111 l 358 1111 l 358 973 l 221 973 m 372 974 l 372 1111 l 508 1111 l 508 974 l 372 974 m 522 974 l 522 1111 l 659 1111 l 659 974 l 522 974 m 673 974 l 673 1111 l 810 1111 l 810 974 l 673 974 z "},"½":{"ha":850,"x_min":71,"x_max":810,"o":"m 71 72 l 71 208 l 207 208 l 207 72 l 71 72 m 221 72 l 221 208 l 358 208 l 358 72 l 221 72 m 372 72 l 372 208 l 508 208 l 508 72 l 372 72 m 522 72 l 522 208 l 659 208 l 659 72 l 522 72 m 673 72 l 673 208 l 810 208 l 810 72 l 673 72 m 71 222 l 71 359 l 207 359 l 207 222 l 71 222 m 673 222 l 673 359 l 810 359 l 810 222 l 673 222 m 71 372 l 71 509 l 207 509 l 207 372 l 71 372 m 673 373 l 673 510 l 810 510 l 810 373 l 673 373 m 71 523 l 71 660 l 207 660 l 207 523 l 71 523 m 673 523 l 673 660 l 810 660 l 810 523 l 673 523 m 221 674 l 221 810 l 358 810 l 358 674 l 221 674 m 522 674 l 522 810 l 659 810 l 659 674 l 522 674 m 221 823 l 221 960 l 358 960 l 358 823 l 221 823 m 522 823 l 522 960 l 659 960 l 659 823 l 522 823 m 372 974 l 372 1111 l 508 1111 l 508 974 l 372 974 z "},"¾":{"ha":850,"x_min":71,"x_max":810,"o":"m 71 72 l 71 208 l 207 208 l 207 72 l 71 72 m 673 72 l 673 208 l 810 208 l 810 72 l 673 72 m 71 222 l 71 359 l 207 359 l 207 222 l 71 222 m 673 222 l 673 359 l 810 359 l 810 222 l 673 222 m 71 372 l 71 509 l 207 509 l 207 372 l 71 372 m 673 373 l 673 510 l 810 510 l 810 373 l 673 373 m 71 523 l 71 660 l 207 660 l 207 523 l 71 523 m 673 523 l 673 660 l 810 660 l 810 523 l 673 523 m 221 674 l 221 810 l 358 810 l 358 674 l 221 674 m 522 674 l 522 811 l 659 811 l 659 674 l 522 674 m 221 823 l 221 960 l 358 960 l 358 823 l 221 823 m 522 823 l 522 960 l 659 960 l 659 823 l 522 823 m 372 974 l 372 1111 l 508 1111 l 508 974 l 372 974 z "},"¿":{"ha":850,"x_min":71,"x_max":810,"o":"m 221 72 l 221 208 l 358 208 l 358 72 l 221 72 m 372 72 l 372 208 l 509 208 l 509 72 l 372 72 m 522 72 l 522 208 l 659 208 l 659 72 l 522 72 m 71 222 l 71 359 l 208 359 l 208 222 l 71 222 m 673 222 l 673 359 l 810 359 l 810 222 l 673 222 m 71 373 l 71 510 l 208 510 l 208 373 l 71 373 m 221 523 l 221 660 l 358 660 l 358 523 l 221 523 m 372 674 l 372 811 l 509 811 l 509 674 l 372 674 m 372 974 l 372 1111 l 509 1111 l 509 974 l 372 974 z "},"À":{"ha":850,"x_min":71,"x_max":810,"o":"m 71 72 l 71 208 l 207 208 l 207 72 l 71 72 m 673 72 l 673 208 l 810 208 l 810 72 l 673 72 m 71 222 l 71 359 l 207 359 l 207 222 l 71 222 m 673 222 l 673 359 l 810 359 l 810 222 l 673 222 m 71 372 l 71 509 l 207 509 l 207 372 l 71 372 m 221 372 l 221 509 l 358 509 l 358 372 l 221 372 m 372 373 l 372 510 l 508 510 l 508 373 l 372 373 m 522 373 l 522 510 l 659 510 l 659 373 l 522 373 m 673 373 l 673 510 l 810 510 l 810 373 l 673 373 m 71 523 l 71 660 l 207 660 l 207 523 l 71 523 m 673 523 l 673 660 l 810 660 l 810 523 l 673 523 m 221 674 l 221 810 l 358 810 l 358 674 l 221 674 m 372 674 l 372 810 l 508 810 l 508 674 l 372 674 m 522 674 l 522 810 l 659 810 l 659 674 l 522 674 m 372 823 l 372 960 l 508 960 l 508 823 l 372 823 m 221 974 l 221 1111 l 358 1111 l 358 974 l 221 974 z "},"Á":{"ha":850,"x_min":71,"x_max":810,"o":"m 71 72 l 71 208 l 207 208 l 207 72 l 71 72 m 673 72 l 673 208 l 810 208 l 810 72 l 673 72 m 71 222 l 71 359 l 207 359 l 207 222 l 71 222 m 673 222 l 673 359 l 810 359 l 810 222 l 673 222 m 71 372 l 71 509 l 207 509 l 207 372 l 71 372 m 221 372 l 221 509 l 358 509 l 358 372 l 221 372 m 372 373 l 372 510 l 508 510 l 508 373 l 372 373 m 522 373 l 522 510 l 659 510 l 659 373 l 522 373 m 673 373 l 673 510 l 810 510 l 810 373 l 673 373 m 71 523 l 71 660 l 207 660 l 207 523 l 71 523 m 673 523 l 673 660 l 810 660 l 810 523 l 673 523 m 221 674 l 221 810 l 358 810 l 358 674 l 221 674 m 372 674 l 372 810 l 508 810 l 508 674 l 372 674 m 522 674 l 522 810 l 659 810 l 659 674 l 522 674 m 372 823 l 372 960 l 508 960 l 508 823 l 372 823 m 522 974 l 522 1111 l 659 1111 l 659 974 l 522 974 z "},"Â":{"ha":850,"x_min":71,"x_max":810,"o":"m 71 72 l 71 208 l 207 208 l 207 72 l 71 72 m 673 72 l 673 208 l 810 208 l 810 72 l 673 72 m 71 222 l 71 358 l 207 358 l 207 222 l 71 222 m 673 222 l 673 359 l 810 359 l 810 222 l 673 222 m 71 372 l 71 509 l 207 509 l 207 372 l 71 372 m 221 372 l 221 509 l 358 509 l 358 372 l 221 372 m 372 373 l 372 510 l 508 510 l 508 373 l 372 373 m 522 373 l 522 510 l 659 510 l 659 373 l 522 373 m 673 373 l 673 510 l 810 510 l 810 373 l 673 373 m 71 523 l 71 660 l 207 660 l 207 523 l 71 523 m 673 523 l 673 660 l 810 660 l 810 523 l 673 523 m 221 674 l 221 810 l 358 810 l 358 674 l 221 674 m 372 674 l 372 810 l 508 810 l 508 674 l 372 674 m 522 674 l 522 810 l 659 810 l 659 674 l 522 674 m 221 823 l 221 960 l 358 960 l 358 823 l 221 823 m 522 823 l 522 960 l 659 960 l 659 823 l 522 823 m 372 974 l 372 1111 l 508 1111 l 508 974 l 372 974 z "},"Ã":{"ha":850,"x_min":71,"x_max":810,"o":"m 71 72 l 71 208 l 207 208 l 207 72 l 71 72 m 673 72 l 673 208 l 810 208 l 810 72 l 673 72 m 71 222 l 71 358 l 207 358 l 207 222 l 71 222 m 673 222 l 673 359 l 810 359 l 810 222 l 673 222 m 71 372 l 71 509 l 207 509 l 207 372 l 71 372 m 221 372 l 221 509 l 358 509 l 358 372 l 221 372 m 372 373 l 372 510 l 508 510 l 508 373 l 372 373 m 522 373 l 522 510 l 659 510 l 659 373 l 522 373 m 673 373 l 673 510 l 810 510 l 810 373 l 673 373 m 71 523 l 71 660 l 207 660 l 207 523 l 71 523 m 673 523 l 673 660 l 810 660 l 810 523 l 673 523 m 221 674 l 221 810 l 358 810 l 358 674 l 221 674 m 372 674 l 372 810 l 508 810 l 508 674 l 372 674 m 522 674 l 522 810 l 659 810 l 659 674 l 522 674 m 71 823 l 71 960 l 207 960 l 207 823 l 71 823 m 372 823 l 372 960 l 508 960 l 508 823 l 372 823 m 221 974 l 221 1111 l 358 1111 l 358 974 l 221 974 m 522 974 l 522 1111 l 659 1111 l 659 974 l 522 974 z "},"Ä":{"ha":850,"x_min":71,"x_max":810,"o":"m 71 72 l 71 208 l 207 208 l 207 72 l 71 72 m 673 72 l 673 208 l 810 208 l 810 72 l 673 72 m 71 222 l 71 359 l 207 359 l 207 222 l 71 222 m 673 222 l 673 359 l 810 359 l 810 222 l 673 222 m 71 372 l 71 509 l 207 509 l 207 372 l 71 372 m 221 372 l 221 509 l 358 509 l 358 372 l 221 372 m 372 373 l 372 510 l 508 510 l 508 373 l 372 373 m 522 373 l 522 510 l 659 510 l 659 373 l 522 373 m 673 373 l 673 510 l 810 510 l 810 373 l 673 373 m 71 523 l 71 660 l 207 660 l 207 523 l 71 523 m 673 523 l 673 660 l 810 660 l 810 523 l 673 523 m 221 674 l 221 810 l 358 810 l 358 674 l 221 674 m 372 674 l 372 810 l 508 810 l 508 674 l 372 674 m 522 674 l 522 810 l 659 810 l 659 674 l 522 674 m 221 974 l 221 1111 l 358 1111 l 358 974 l 221 974 m 522 974 l 522 1111 l 659 1111 l 659 974 l 522 974 z "},"Å":{"ha":850,"x_min":71,"x_max":810,"o":"m 71 72 l 71 208 l 207 208 l 207 72 l 71 72 m 673 72 l 673 208 l 810 208 l 810 72 l 673 72 m 71 222 l 71 358 l 207 358 l 207 222 l 71 222 m 673 222 l 673 359 l 810 359 l 810 222 l 673 222 m 71 372 l 71 509 l 207 509 l 207 372 l 71 372 m 221 372 l 221 509 l 358 509 l 358 372 l 221 372 m 372 373 l 372 509 l 508 509 l 508 373 l 372 373 m 522 373 l 522 510 l 659 510 l 659 373 l 522 373 m 673 373 l 673 510 l 810 510 l 810 373 l 673 373 m 71 523 l 71 660 l 207 660 l 207 523 l 71 523 m 673 523 l 673 660 l 810 660 l 810 523 l 673 523 m 221 674 l 221 810 l 358 810 l 358 674 l 221 674 m 372 674 l 372 810 l 508 810 l 508 674 l 372 674 m 522 674 l 522 810 l 659 810 l 659 674 l 522 674 m 221 823 l 221 960 l 358 960 l 358 823 l 221 823 m 522 823 l 522 960 l 659 960 l 659 823 l 522 823 m 221 973 l 221 1111 l 358 1111 l 358 973 l 221 973 m 372 974 l 372 1111 l 508 1111 l 508 974 l 372 974 m 522 974 l 522 1111 l 659 1111 l 659 974 l 522 974 z "},"Æ":{"ha":850,"x_min":71,"x_max":810,"o":"m 71 72 l 71 208 l 207 208 l 207 72 l 71 72 m 372 72 l 372 208 l 508 208 l 508 72 l 372 72 m 522 72 l 522 208 l 659 208 l 659 72 l 522 72 m 673 72 l 673 208 l 810 208 l 810 72 l 673 72 m 71 222 l 71 358 l 207 358 l 207 222 l 71 222 m 372 222 l 372 359 l 508 359 l 508 222 l 372 222 m 71 372 l 71 509 l 207 509 l 207 372 l 71 372 m 372 373 l 372 509 l 508 509 l 508 373 l 372 373 m 71 523 l 71 660 l 207 660 l 207 523 l 71 523 m 221 523 l 221 660 l 358 660 l 358 523 l 221 523 m 372 523 l 372 660 l 508 660 l 508 523 l 372 523 m 522 523 l 522 660 l 659 660 l 659 523 l 522 523 m 673 523 l 673 660 l 810 660 l 810 523 l 673 523 m 71 673 l 71 810 l 207 810 l 207 673 l 71 673 m 372 674 l 372 810 l 508 810 l 508 674 l 372 674 m 71 823 l 71 960 l 207 960 l 207 823 l 71 823 m 372 823 l 372 960 l 508 960 l 508 823 l 372 823 m 221 973 l 221 1111 l 358 1111 l 358 973 l 221 973 m 372 974 l 372 1111 l 508 1111 l 508 974 l 372 974 m 522 974 l 522 1111 l 659 1111 l 659 974 l 522 974 m 673 974 l 673 1111 l 810 1111 l 810 974 l 673 974 z "},"Ç":{"ha":850,"x_min":71,"x_max":810,"o":"m 372 72 l 372 208 l 509 208 l 509 72 l 372 72 m 221 222 l 221 359 l 358 359 l 358 222 l 221 222 m 372 222 l 372 359 l 508 359 l 508 222 l 372 222 m 522 222 l 522 359 l 659 359 l 659 222 l 522 222 m 71 373 l 71 509 l 207 509 l 207 373 l 71 373 m 673 373 l 673 510 l 810 510 l 810 373 l 673 373 m 71 523 l 71 660 l 207 660 l 207 523 l 71 523 m 71 674 l 71 810 l 207 810 l 207 674 l 71 674 m 71 823 l 71 960 l 207 960 l 207 823 l 71 823 m 673 823 l 673 960 l 810 960 l 810 823 l 673 823 m 221 974 l 221 1111 l 358 1111 l 358 974 l 221 974 m 372 974 l 372 1111 l 508 1111 l 508 974 l 372 974 m 522 974 l 522 1111 l 659 1111 l 659 974 l 522 974 z "},"È":{"ha":850,"x_min":71,"x_max":810,"o":"m 71 72 l 71 208 l 207 208 l 207 72 l 71 72 m 221 72 l 221 208 l 358 208 l 358 72 l 221 72 m 372 72 l 372 208 l 508 208 l 508 72 l 372 72 m 522 72 l 522 208 l 659 208 l 659 72 l 522 72 m 673 72 l 673 208 l 810 208 l 810 72 l 673 72 m 71 222 l 71 358 l 207 358 l 207 222 l 71 222 m 71 372 l 71 509 l 207 509 l 207 372 l 71 372 m 221 372 l 221 509 l 358 509 l 358 372 l 221 372 m 372 373 l 372 510 l 508 510 l 508 373 l 372 373 m 522 373 l 522 510 l 659 510 l 659 373 l 522 373 m 71 523 l 71 660 l 207 660 l 207 523 l 71 523 m 71 673 l 71 810 l 207 810 l 207 673 l 71 673 m 221 674 l 221 810 l 358 810 l 358 674 l 221 674 m 372 674 l 372 810 l 508 810 l 508 674 l 372 674 m 522 674 l 522 811 l 659 811 l 659 674 l 522 674 m 673 674 l 673 811 l 810 811 l 810 674 l 673 674 m 372 823 l 372 960 l 508 960 l 508 823 l 372 823 m 221 974 l 221 1111 l 358 1111 l 358 974 l 221 974 z "},"É":{"ha":850,"x_min":71,"x_max":810,"o":"m 71 72 l 71 208 l 207 208 l 207 72 l 71 72 m 221 72 l 221 208 l 358 208 l 358 72 l 221 72 m 372 72 l 372 208 l 508 208 l 508 72 l 372 72 m 522 72 l 522 208 l 659 208 l 659 72 l 522 72 m 673 72 l 673 208 l 810 208 l 810 72 l 673 72 m 71 222 l 71 358 l 207 358 l 207 222 l 71 222 m 71 372 l 71 509 l 207 509 l 207 372 l 71 372 m 221 372 l 221 509 l 358 509 l 358 372 l 221 372 m 372 373 l 372 510 l 508 510 l 508 373 l 372 373 m 522 373 l 522 510 l 659 510 l 659 373 l 522 373 m 71 523 l 71 660 l 207 660 l 207 523 l 71 523 m 71 673 l 71 810 l 207 810 l 207 673 l 71 673 m 221 674 l 221 810 l 358 810 l 358 674 l 221 674 m 372 674 l 372 810 l 508 810 l 508 674 l 372 674 m 522 674 l 522 811 l 659 811 l 659 674 l 522 674 m 673 674 l 673 811 l 810 811 l 810 674 l 673 674 m 372 823 l 372 960 l 508 960 l 508 823 l 372 823 m 522 974 l 522 1111 l 659 1111 l 659 974 l 522 974 z "},"Ê":{"ha":850,"x_min":71,"x_max":810,"o":"m 71 72 l 71 208 l 207 208 l 207 72 l 71 72 m 221 72 l 221 208 l 358 208 l 358 72 l 221 72 m 372 72 l 372 208 l 508 208 l 508 72 l 372 72 m 522 72 l 522 208 l 659 208 l 659 72 l 522 72 m 673 72 l 673 208 l 810 208 l 810 72 l 673 72 m 71 222 l 71 358 l 207 358 l 207 222 l 71 222 m 71 372 l 71 509 l 207 509 l 207 372 l 71 372 m 221 372 l 221 509 l 358 509 l 358 372 l 221 372 m 372 373 l 372 510 l 508 510 l 508 373 l 372 373 m 522 373 l 522 510 l 659 510 l 659 373 l 522 373 m 71 523 l 71 660 l 207 660 l 207 523 l 71 523 m 71 673 l 71 810 l 207 810 l 207 673 l 71 673 m 221 674 l 221 810 l 358 810 l 358 674 l 221 674 m 372 674 l 372 810 l 508 810 l 508 674 l 372 674 m 522 674 l 522 811 l 659 811 l 659 674 l 522 674 m 673 674 l 673 811 l 810 811 l 810 674 l 673 674 m 221 823 l 221 960 l 358 960 l 358 823 l 221 823 m 522 823 l 522 960 l 659 960 l 659 823 l 522 823 m 372 974 l 372 1111 l 508 1111 l 508 974 l 372 974 z "},"Ë":{"ha":850,"x_min":71,"x_max":810,"o":"m 71 72 l 71 208 l 207 208 l 207 72 l 71 72 m 221 72 l 221 208 l 358 208 l 358 72 l 221 72 m 372 72 l 372 208 l 508 208 l 508 72 l 372 72 m 522 72 l 522 208 l 659 208 l 659 72 l 522 72 m 673 72 l 673 208 l 810 208 l 810 72 l 673 72 m 71 222 l 71 358 l 207 358 l 207 222 l 71 222 m 71 372 l 71 509 l 207 509 l 207 372 l 71 372 m 221 372 l 221 509 l 358 509 l 358 372 l 221 372 m 372 373 l 372 510 l 508 510 l 508 373 l 372 373 m 522 373 l 522 510 l 659 510 l 659 373 l 522 373 m 71 523 l 71 660 l 207 660 l 207 523 l 71 523 m 71 673 l 71 810 l 207 810 l 207 673 l 71 673 m 221 674 l 221 810 l 358 810 l 358 674 l 221 674 m 372 674 l 372 810 l 508 810 l 508 674 l 372 674 m 522 674 l 522 811 l 659 811 l 659 674 l 522 674 m 673 674 l 673 811 l 810 811 l 810 674 l 673 674 m 221 974 l 221 1111 l 358 1111 l 358 974 l 221 974 m 522 974 l 522 1111 l 659 1111 l 659 974 l 522 974 z "},"Ì":{"ha":850,"x_min":222,"x_max":659,"o":"m 222 72 l 222 208 l 358 208 l 358 72 l 222 72 m 372 72 l 372 208 l 509 208 l 509 72 l 372 72 m 523 72 l 523 208 l 659 208 l 659 72 l 523 72 m 372 222 l 372 359 l 509 359 l 509 222 l 372 222 m 372 373 l 372 510 l 509 510 l 509 373 l 372 373 m 372 523 l 372 660 l 508 660 l 508 523 l 372 523 m 222 674 l 222 810 l 358 810 l 358 674 l 222 674 m 372 674 l 372 810 l 508 810 l 508 674 l 372 674 m 522 674 l 522 811 l 659 811 l 659 674 l 522 674 m 372 823 l 372 960 l 508 960 l 508 823 l 372 823 m 222 974 l 222 1111 l 358 1111 l 358 974 l 222 974 z "},"Í":{"ha":850,"x_min":222,"x_max":659,"o":"m 222 72 l 222 208 l 358 208 l 358 72 l 222 72 m 372 72 l 372 208 l 509 208 l 509 72 l 372 72 m 523 72 l 523 208 l 659 208 l 659 72 l 523 72 m 372 222 l 372 359 l 509 359 l 509 222 l 372 222 m 372 373 l 372 510 l 508 510 l 508 373 l 372 373 m 372 523 l 372 660 l 508 660 l 508 523 l 372 523 m 222 674 l 222 810 l 358 810 l 358 674 l 222 674 m 372 674 l 372 810 l 508 810 l 508 674 l 372 674 m 522 674 l 522 811 l 659 811 l 659 674 l 522 674 m 372 823 l 372 960 l 508 960 l 508 823 l 372 823 m 522 974 l 522 1111 l 659 1111 l 659 974 l 522 974 z "},"Î":{"ha":850,"x_min":222,"x_max":659,"o":"m 222 72 l 222 208 l 358 208 l 358 72 l 222 72 m 372 72 l 372 208 l 509 208 l 509 72 l 372 72 m 523 72 l 523 208 l 659 208 l 659 72 l 523 72 m 372 222 l 372 359 l 509 359 l 509 222 l 372 222 m 372 373 l 372 510 l 508 510 l 508 373 l 372 373 m 372 523 l 372 660 l 508 660 l 508 523 l 372 523 m 222 674 l 222 810 l 358 810 l 358 674 l 222 674 m 372 674 l 372 810 l 508 810 l 508 674 l 372 674 m 522 674 l 522 811 l 659 811 l 659 674 l 522 674 m 222 823 l 222 960 l 358 960 l 358 823 l 222 823 m 522 823 l 522 960 l 659 960 l 659 823 l 522 823 m 372 974 l 372 1111 l 508 1111 l 508 974 l 372 974 z "},"Ï":{"ha":850,"x_min":222,"x_max":659,"o":"m 222 72 l 222 208 l 358 208 l 358 72 l 222 72 m 372 72 l 372 208 l 509 208 l 509 72 l 372 72 m 523 72 l 523 208 l 659 208 l 659 72 l 523 72 m 372 222 l 372 359 l 509 359 l 509 222 l 372 222 m 372 373 l 372 510 l 508 510 l 508 373 l 372 373 m 372 523 l 372 660 l 508 660 l 508 523 l 372 523 m 222 674 l 222 810 l 358 810 l 358 674 l 222 674 m 372 674 l 372 810 l 508 810 l 508 674 l 372 674 m 522 674 l 522 811 l 659 811 l 659 674 l 522 674 m 222 974 l 222 1111 l 358 1111 l 358 974 l 222 974 m 522 974 l 522 1111 l 659 1111 l 659 974 l 522 974 z "},"Ð":{"ha":850,"x_min":71,"x_max":810,"o":"m 221 72 l 221 208 l 358 208 l 358 72 l 221 72 m 372 72 l 372 208 l 508 208 l 508 72 l 372 72 m 522 72 l 522 208 l 659 208 l 659 72 l 522 72 m 221 222 l 221 359 l 358 359 l 358 222 l 221 222 m 673 222 l 673 359 l 810 359 l 810 222 l 673 222 m 221 372 l 221 509 l 358 509 l 358 372 l 221 372 m 673 373 l 673 510 l 810 510 l 810 373 l 673 373 m 71 523 l 71 660 l 207 660 l 207 523 l 71 523 m 221 523 l 221 660 l 358 660 l 358 523 l 221 523 m 372 523 l 372 660 l 508 660 l 508 523 l 372 523 m 673 523 l 673 660 l 810 660 l 810 523 l 673 523 m 221 674 l 221 810 l 358 810 l 358 674 l 221 674 m 673 674 l 673 811 l 810 811 l 810 674 l 673 674 m 221 823 l 221 960 l 358 960 l 358 823 l 221 823 m 673 823 l 673 960 l 810 960 l 810 823 l 673 823 m 221 973 l 221 1111 l 358 1111 l 358 973 l 221 973 m 372 974 l 372 1111 l 508 1111 l 508 974 l 372 974 m 522 974 l 522 1111 l 659 1111 l 659 974 l 522 974 z "},"Ñ":{"ha":850,"x_min":71,"x_max":810,"o":"m 71 72 l 71 208 l 207 208 l 207 72 l 71 72 m 673 72 l 673 208 l 810 208 l 810 72 l 673 72 m 71 222 l 71 359 l 207 359 l 207 222 l 71 222 m 522 222 l 522 359 l 659 359 l 659 222 l 522 222 m 673 222 l 673 359 l 810 359 l 810 222 l 673 222 m 71 372 l 71 509 l 207 509 l 207 372 l 71 372 m 372 373 l 372 510 l 508 510 l 508 373 l 372 373 m 673 373 l 673 510 l 810 510 l 810 373 l 673 373 m 71 523 l 71 660 l 207 660 l 207 523 l 71 523 m 221 523 l 221 660 l 358 660 l 358 523 l 221 523 m 673 523 l 673 660 l 810 660 l 810 523 l 673 523 m 71 674 l 71 810 l 207 810 l 207 674 l 71 674 m 673 674 l 673 811 l 810 811 l 810 674 l 673 674 m 221 974 l 221 1111 l 358 1111 l 358 974 l 221 974 m 372 974 l 372 1111 l 508 1111 l 508 974 l 372 974 m 522 974 l 522 1111 l 659 1111 l 659 974 l 522 974 z "},"Ò":{"ha":850,"x_min":71,"x_max":810,"o":"m 221 72 l 221 208 l 358 208 l 358 72 l 221 72 m 372 72 l 372 208 l 508 208 l 508 72 l 372 72 m 522 72 l 522 208 l 659 208 l 659 72 l 522 72 m 71 222 l 71 359 l 207 359 l 207 222 l 71 222 m 673 222 l 673 359 l 810 359 l 810 222 l 673 222 m 71 372 l 71 509 l 207 509 l 207 372 l 71 372 m 673 373 l 673 510 l 810 510 l 810 373 l 673 373 m 71 523 l 71 660 l 207 660 l 207 523 l 71 523 m 673 523 l 673 660 l 810 660 l 810 523 l 673 523 m 221 674 l 221 810 l 358 810 l 358 674 l 221 674 m 372 674 l 372 810 l 508 810 l 508 674 l 372 674 m 522 674 l 522 811 l 659 811 l 659 674 l 522 674 m 372 823 l 372 960 l 508 960 l 508 823 l 372 823 m 221 974 l 221 1111 l 358 1111 l 358 974 l 221 974 z "},"Ó":{"ha":850,"x_min":71,"x_max":810,"o":"m 221 72 l 221 208 l 358 208 l 358 72 l 221 72 m 372 72 l 372 208 l 508 208 l 508 72 l 372 72 m 522 72 l 522 208 l 659 208 l 659 72 l 522 72 m 71 222 l 71 359 l 207 359 l 207 222 l 71 222 m 673 222 l 673 359 l 810 359 l 810 222 l 673 222 m 71 372 l 71 509 l 207 509 l 207 372 l 71 372 m 673 373 l 673 510 l 810 510 l 810 373 l 673 373 m 71 523 l 71 660 l 207 660 l 207 523 l 71 523 m 673 523 l 673 660 l 810 660 l 810 523 l 673 523 m 221 674 l 221 810 l 358 810 l 358 674 l 221 674 m 372 674 l 372 810 l 508 810 l 508 674 l 372 674 m 522 674 l 522 811 l 659 811 l 659 674 l 522 674 m 372 823 l 372 960 l 508 960 l 508 823 l 372 823 m 522 974 l 522 1111 l 659 1111 l 659 974 l 522 974 z "},"Ô":{"ha":850,"x_min":71,"x_max":810,"o":"m 221 72 l 221 208 l 358 208 l 358 72 l 221 72 m 372 72 l 372 208 l 508 208 l 508 72 l 372 72 m 522 72 l 522 208 l 659 208 l 659 72 l 522 72 m 71 222 l 71 359 l 207 359 l 207 222 l 71 222 m 673 222 l 673 359 l 810 359 l 810 222 l 673 222 m 71 372 l 71 509 l 207 509 l 207 372 l 71 372 m 673 373 l 673 510 l 810 510 l 810 373 l 673 373 m 71 523 l 71 660 l 207 660 l 207 523 l 71 523 m 673 523 l 673 660 l 810 660 l 810 523 l 673 523 m 221 674 l 221 810 l 358 810 l 358 674 l 221 674 m 372 674 l 372 810 l 508 810 l 508 674 l 372 674 m 522 674 l 522 811 l 659 811 l 659 674 l 522 674 m 221 823 l 221 960 l 358 960 l 358 823 l 221 823 m 522 823 l 522 960 l 659 960 l 659 823 l 522 823 m 372 974 l 372 1111 l 508 1111 l 508 974 l 372 974 z "},"Õ":{"ha":850,"x_min":71,"x_max":810,"o":"m 221 72 l 221 208 l 358 208 l 358 72 l 221 72 m 372 72 l 372 208 l 508 208 l 508 72 l 372 72 m 522 72 l 522 208 l 659 208 l 659 72 l 522 72 m 71 222 l 71 359 l 207 359 l 207 222 l 71 222 m 673 222 l 673 359 l 810 359 l 810 222 l 673 222 m 71 372 l 71 509 l 207 509 l 207 372 l 71 372 m 673 373 l 673 510 l 810 510 l 810 373 l 673 373 m 71 523 l 71 660 l 207 660 l 207 523 l 71 523 m 673 523 l 673 660 l 810 660 l 810 523 l 673 523 m 221 674 l 221 810 l 358 810 l 358 674 l 221 674 m 372 674 l 372 810 l 508 810 l 508 674 l 372 674 m 522 674 l 522 811 l 659 811 l 659 674 l 522 674 m 71 823 l 71 960 l 207 960 l 207 823 l 71 823 m 372 823 l 372 960 l 508 960 l 508 823 l 372 823 m 221 974 l 221 1111 l 358 1111 l 358 974 l 221 974 m 522 974 l 522 1111 l 659 1111 l 659 974 l 522 974 z "},"Ö":{"ha":850,"x_min":71,"x_max":810,"o":"m 221 72 l 221 208 l 358 208 l 358 72 l 221 72 m 372 72 l 372 208 l 508 208 l 508 72 l 372 72 m 522 72 l 522 208 l 659 208 l 659 72 l 522 72 m 71 222 l 71 359 l 207 359 l 207 222 l 71 222 m 673 222 l 673 359 l 810 359 l 810 222 l 673 222 m 71 372 l 71 509 l 207 509 l 207 372 l 71 372 m 673 373 l 673 510 l 810 510 l 810 373 l 673 373 m 71 523 l 71 660 l 207 660 l 207 523 l 71 523 m 673 523 l 673 660 l 810 660 l 810 523 l 673 523 m 71 674 l 71 810 l 207 810 l 207 674 l 71 674 m 673 674 l 673 811 l 810 811 l 810 674 l 673 674 m 221 823 l 221 960 l 358 960 l 358 823 l 221 823 m 372 823 l 372 960 l 508 960 l 508 823 l 372 823 m 522 823 l 522 960 l 659 960 l 659 823 l 522 823 m 221 974 l 221 1111 l 358 1111 l 358 974 l 221 974 m 522 974 l 522 1111 l 659 1111 l 659 974 l 522 974 z "},"×":{"ha":850,"x_min":71,"x_max":810,"o":"m 71 222 l 71 359 l 208 359 l 208 222 l 71 222 m 673 222 l 673 359 l 810 359 l 810 222 l 673 222 m 221 373 l 221 510 l 358 510 l 358 373 l 221 373 m 522 373 l 522 510 l 659 510 l 659 373 l 522 373 m 372 523 l 372 660 l 509 660 l 509 523 l 372 523 m 221 674 l 221 810 l 358 810 l 358 674 l 221 674 m 522 674 l 522 811 l 659 811 l 659 674 l 522 674 m 71 823 l 71 961 l 208 961 l 208 823 l 71 823 m 673 823 l 673 961 l 810 961 l 810 823 l 673 823 z "},"Ø":{"ha":850,"x_min":71,"x_max":810,"o":"m 71 72 l 71 208 l 207 208 l 207 72 l 71 72 m 372 72 l 372 208 l 508 208 l 508 72 l 372 72 m 522 72 l 522 208 l 659 208 l 659 72 l 522 72 m 221 222 l 221 359 l 358 359 l 358 222 l 221 222 m 673 222 l 673 359 l 810 359 l 810 222 l 673 222 m 71 372 l 71 509 l 207 509 l 207 372 l 71 372 m 372 373 l 372 509 l 508 509 l 508 373 l 372 373 m 673 373 l 673 510 l 810 510 l 810 373 l 673 373 m 71 523 l 71 660 l 207 660 l 207 523 l 71 523 m 372 523 l 372 660 l 508 660 l 508 523 l 372 523 m 673 523 l 673 660 l 810 660 l 810 523 l 673 523 m 71 673 l 71 810 l 207 810 l 207 673 l 71 673 m 372 674 l 372 810 l 508 810 l 508 674 l 372 674 m 673 674 l 673 811 l 810 811 l 810 674 l 673 674 m 71 823 l 71 960 l 207 960 l 207 823 l 71 823 m 522 823 l 522 960 l 659 960 l 659 823 l 522 823 m 221 974 l 221 1111 l 358 1111 l 358 974 l 221 974 m 372 974 l 372 1111 l 508 1111 l 508 974 l 372 974 m 673 974 l 673 1111 l 810 1111 l 810 974 l 673 974 z "},"Ù":{"ha":850,"x_min":71,"x_max":810,"o":"m 221 72 l 221 208 l 358 208 l 358 72 l 221 72 m 372 72 l 372 208 l 508 208 l 508 72 l 372 72 m 522 72 l 522 208 l 659 208 l 659 72 l 522 72 m 71 222 l 71 359 l 207 359 l 207 222 l 71 222 m 673 222 l 673 359 l 810 359 l 810 222 l 673 222 m 71 372 l 71 509 l 207 509 l 207 372 l 71 372 m 673 373 l 673 510 l 810 510 l 810 373 l 673 373 m 71 523 l 71 660 l 207 660 l 207 523 l 71 523 m 673 523 l 673 660 l 810 660 l 810 523 l 673 523 m 71 674 l 71 810 l 207 810 l 207 674 l 71 674 m 673 674 l 673 811 l 810 811 l 810 674 l 673 674 m 372 823 l 372 960 l 508 960 l 508 823 l 372 823 m 221 974 l 221 1111 l 358 1111 l 358 974 l 221 974 z "},"Ú":{"ha":850,"x_min":71,"x_max":810,"o":"m 221 72 l 221 208 l 358 208 l 358 72 l 221 72 m 372 72 l 372 208 l 508 208 l 508 72 l 372 72 m 522 72 l 522 208 l 659 208 l 659 72 l 522 72 m 71 222 l 71 359 l 207 359 l 207 222 l 71 222 m 673 222 l 673 359 l 810 359 l 810 222 l 673 222 m 71 372 l 71 509 l 207 509 l 207 372 l 71 372 m 673 373 l 673 510 l 810 510 l 810 373 l 673 373 m 71 523 l 71 660 l 207 660 l 207 523 l 71 523 m 673 523 l 673 660 l 810 660 l 810 523 l 673 523 m 71 674 l 71 810 l 207 810 l 207 674 l 71 674 m 673 674 l 673 811 l 810 811 l 810 674 l 673 674 m 372 823 l 372 960 l 508 960 l 508 823 l 372 823 m 522 974 l 522 1111 l 659 1111 l 659 974 l 522 974 z "},"Û":{"ha":850,"x_min":71,"x_max":810,"o":"m 221 72 l 221 208 l 358 208 l 358 72 l 221 72 m 372 72 l 372 208 l 508 208 l 508 72 l 372 72 m 522 72 l 522 208 l 659 208 l 659 72 l 522 72 m 71 222 l 71 359 l 207 359 l 207 222 l 71 222 m 673 222 l 673 359 l 810 359 l 810 222 l 673 222 m 71 372 l 71 509 l 207 509 l 207 372 l 71 372 m 673 373 l 673 510 l 810 510 l 810 373 l 673 373 m 71 523 l 71 660 l 207 660 l 207 523 l 71 523 m 673 523 l 673 660 l 810 660 l 810 523 l 673 523 m 221 823 l 221 960 l 358 960 l 358 823 l 221 823 m 522 823 l 522 960 l 659 960 l 659 823 l 522 823 m 372 974 l 372 1111 l 508 1111 l 508 974 l 372 974 z "},"Ü":{"ha":850,"x_min":71,"x_max":810,"o":"m 221 72 l 221 208 l 358 208 l 358 72 l 221 72 m 372 72 l 372 208 l 508 208 l 508 72 l 372 72 m 522 72 l 522 208 l 659 208 l 659 72 l 522 72 m 71 222 l 71 359 l 207 359 l 207 222 l 71 222 m 673 222 l 673 359 l 810 359 l 810 222 l 673 222 m 71 372 l 71 509 l 207 509 l 207 372 l 71 372 m 673 373 l 673 510 l 810 510 l 810 373 l 673 373 m 71 523 l 71 660 l 207 660 l 207 523 l 71 523 m 673 523 l 673 660 l 810 660 l 810 523 l 673 523 m 71 674 l 71 810 l 207 810 l 207 674 l 71 674 m 673 674 l 673 811 l 810 811 l 810 674 l 673 674 m 221 974 l 221 1111 l 358 1111 l 358 974 l 221 974 m 522 974 l 522 1111 l 659 1111 l 659 974 l 522 974 z "},"Ý":{"ha":850,"x_min":71,"x_max":810,"o":"m 372 72 l 372 208 l 509 208 l 509 72 l 372 72 m 372 222 l 372 359 l 509 359 l 509 222 l 372 222 m 372 373 l 372 510 l 508 510 l 508 373 l 372 373 m 221 523 l 221 660 l 358 660 l 358 523 l 221 523 m 522 523 l 522 660 l 659 660 l 659 523 l 522 523 m 71 674 l 71 810 l 208 810 l 208 674 l 71 674 m 673 674 l 673 811 l 810 811 l 810 674 l 673 674 m 372 823 l 372 960 l 508 960 l 508 823 l 372 823 m 522 974 l 522 1111 l 659 1111 l 659 974 l 522 974 z "},"Þ":{"ha":850,"x_min":71,"x_max":659,"o":"m 71 72 l 71 208 l 208 208 l 208 72 l 71 72 m 71 222 l 71 359 l 208 359 l 208 222 l 71 222 m 71 373 l 71 510 l 208 510 l 208 373 l 71 373 m 221 373 l 221 510 l 358 510 l 358 373 l 221 373 m 372 373 l 372 510 l 509 510 l 509 373 l 372 373 m 71 523 l 71 660 l 208 660 l 208 523 l 71 523 m 523 523 l 523 660 l 659 660 l 659 523 l 523 523 m 71 674 l 71 810 l 207 810 l 207 674 l 71 674 m 221 674 l 221 811 l 358 811 l 358 674 l 221 674 m 372 674 l 372 811 l 509 811 l 509 674 l 372 674 m 71 823 l 71 960 l 207 960 l 207 823 l 71 823 m 71 974 l 71 1111 l 207 1111 l 207 974 l 71 974 z "},"ß":{"ha":850,"x_min":71,"x_max":810,"o":"m 71 72 l 71 208 l 207 208 l 207 72 l 71 72 m 71 222 l 71 359 l 207 359 l 207 222 l 71 222 m 221 222 l 221 359 l 358 359 l 358 222 l 221 222 m 372 222 l 372 359 l 508 359 l 508 222 l 372 222 m 522 222 l 522 359 l 659 359 l 659 222 l 522 222 m 71 372 l 71 509 l 207 509 l 207 372 l 71 372 m 673 373 l 673 510 l 810 510 l 810 373 l 673 373 m 71 523 l 71 660 l 207 660 l 207 523 l 71 523 m 221 523 l 221 660 l 358 660 l 358 523 l 221 523 m 372 523 l 372 660 l 508 660 l 508 523 l 372 523 m 522 523 l 522 660 l 659 660 l 659 523 l 522 523 m 71 674 l 71 810 l 207 810 l 207 674 l 71 674 m 673 674 l 673 811 l 810 811 l 810 674 l 673 674 m 221 823 l 221 961 l 358 961 l 358 823 l 221 823 m 372 823 l 372 961 l 508 961 l 508 823 l 372 823 m 522 823 l 522 961 l 659 961 l 659 823 l 522 823 z "},"à":{"ha":850,"x_min":71,"x_max":810,"o":"m 221 72 l 221 208 l 358 208 l 358 72 l 221 72 m 372 72 l 372 208 l 508 208 l 508 72 l 372 72 m 522 72 l 522 208 l 659 208 l 659 72 l 522 72 m 673 72 l 673 208 l 810 208 l 810 72 l 673 72 m 71 222 l 71 358 l 207 358 l 207 222 l 71 222 m 673 222 l 673 359 l 810 359 l 810 222 l 673 222 m 221 372 l 221 509 l 358 509 l 358 372 l 221 372 m 372 373 l 372 509 l 508 509 l 508 373 l 372 373 m 522 373 l 522 510 l 659 510 l 659 373 l 522 373 m 673 373 l 673 510 l 810 510 l 810 373 l 673 373 m 673 523 l 673 660 l 810 660 l 810 523 l 673 523 m 221 674 l 221 810 l 358 810 l 358 674 l 221 674 m 372 674 l 372 810 l 508 810 l 508 674 l 372 674 m 522 674 l 522 810 l 659 810 l 659 674 l 522 674 m 372 823 l 372 960 l 508 960 l 508 823 l 372 823 m 221 973 l 221 1111 l 358 1111 l 358 973 l 221 973 z "},"á":{"ha":850,"x_min":71,"x_max":810,"o":"m 221 72 l 221 208 l 358 208 l 358 72 l 221 72 m 372 72 l 372 208 l 508 208 l 508 72 l 372 72 m 522 72 l 522 208 l 659 208 l 659 72 l 522 72 m 673 72 l 673 208 l 810 208 l 810 72 l 673 72 m 71 222 l 71 358 l 207 358 l 207 222 l 71 222 m 673 222 l 673 359 l 810 359 l 810 222 l 673 222 m 221 372 l 221 509 l 358 509 l 358 372 l 221 372 m 372 372 l 372 509 l 508 509 l 508 372 l 372 372 m 522 373 l 522 510 l 659 510 l 659 373 l 522 373 m 673 373 l 673 510 l 810 510 l 810 373 l 673 373 m 673 523 l 673 660 l 810 660 l 810 523 l 673 523 m 221 674 l 221 810 l 358 810 l 358 674 l 221 674 m 372 674 l 372 810 l 508 810 l 508 674 l 372 674 m 522 674 l 522 810 l 659 810 l 659 674 l 522 674 m 372 823 l 372 960 l 508 960 l 508 823 l 372 823 m 522 974 l 522 1111 l 659 1111 l 659 974 l 522 974 z "},"â":{"ha":850,"x_min":71,"x_max":810,"o":"m 221 72 l 221 208 l 358 208 l 358 72 l 221 72 m 372 72 l 372 208 l 508 208 l 508 72 l 372 72 m 522 72 l 522 208 l 659 208 l 659 72 l 522 72 m 673 72 l 673 208 l 810 208 l 810 72 l 673 72 m 71 222 l 71 358 l 207 358 l 207 222 l 71 222 m 673 222 l 673 359 l 810 359 l 810 222 l 673 222 m 221 372 l 221 509 l 358 509 l 358 372 l 221 372 m 372 372 l 372 509 l 508 509 l 508 372 l 372 372 m 522 373 l 522 510 l 659 510 l 659 373 l 522 373 m 673 373 l 673 510 l 810 510 l 810 373 l 673 373 m 673 523 l 673 660 l 810 660 l 810 523 l 673 523 m 221 674 l 221 810 l 358 810 l 358 674 l 221 674 m 372 674 l 372 810 l 508 810 l 508 674 l 372 674 m 522 674 l 522 810 l 659 810 l 659 674 l 522 674 m 221 823 l 221 960 l 358 960 l 358 823 l 221 823 m 522 823 l 522 960 l 659 960 l 659 823 l 522 823 m 372 974 l 372 1111 l 508 1111 l 508 974 l 372 974 z "},"ã":{"ha":850,"x_min":71,"x_max":810,"o":"m 221 72 l 221 208 l 358 208 l 358 72 l 221 72 m 372 72 l 372 208 l 508 208 l 508 72 l 372 72 m 522 72 l 522 208 l 659 208 l 659 72 l 522 72 m 673 72 l 673 208 l 810 208 l 810 72 l 673 72 m 71 222 l 71 358 l 207 358 l 207 222 l 71 222 m 673 222 l 673 359 l 810 359 l 810 222 l 673 222 m 221 372 l 221 509 l 358 509 l 358 372 l 221 372 m 372 372 l 372 509 l 508 509 l 508 372 l 372 372 m 522 373 l 522 510 l 659 510 l 659 373 l 522 373 m 673 373 l 673 510 l 810 510 l 810 373 l 673 373 m 673 523 l 673 660 l 810 660 l 810 523 l 673 523 m 221 674 l 221 810 l 358 810 l 358 674 l 221 674 m 372 674 l 372 810 l 508 810 l 508 674 l 372 674 m 522 674 l 522 810 l 659 810 l 659 674 l 522 674 m 71 823 l 71 960 l 207 960 l 207 823 l 71 823 m 372 823 l 372 960 l 508 960 l 508 823 l 372 823 m 221 973 l 221 1111 l 358 1111 l 358 973 l 221 973 m 522 974 l 522 1111 l 659 1111 l 659 974 l 522 974 z "},"ä":{"ha":850,"x_min":71,"x_max":810,"o":"m 221 72 l 221 208 l 358 208 l 358 72 l 221 72 m 372 72 l 372 208 l 508 208 l 508 72 l 372 72 m 522 72 l 522 208 l 659 208 l 659 72 l 522 72 m 673 72 l 673 208 l 810 208 l 810 72 l 673 72 m 71 222 l 71 358 l 207 358 l 207 222 l 71 222 m 673 222 l 673 359 l 810 359 l 810 222 l 673 222 m 221 372 l 221 509 l 358 509 l 358 372 l 221 372 m 372 372 l 372 509 l 508 509 l 508 372 l 372 372 m 522 373 l 522 510 l 659 510 l 659 373 l 522 373 m 673 373 l 673 510 l 810 510 l 810 373 l 673 373 m 673 523 l 673 660 l 810 660 l 810 523 l 673 523 m 221 674 l 221 810 l 358 810 l 358 674 l 221 674 m 372 674 l 372 810 l 508 810 l 508 674 l 372 674 m 522 674 l 522 810 l 659 810 l 659 674 l 522 674 m 221 973 l 221 1111 l 358 1111 l 358 973 l 221 973 m 522 974 l 522 1111 l 659 1111 l 659 974 l 522 974 z "},"å":{"ha":850,"x_min":71,"x_max":810,"o":"m 221 71 l 221 208 l 358 208 l 358 71 l 221 71 m 372 71 l 372 208 l 508 208 l 508 71 l 372 71 m 522 71 l 522 208 l 659 208 l 659 71 l 522 71 m 673 71 l 673 208 l 810 208 l 810 71 l 673 71 m 71 222 l 71 358 l 207 358 l 207 222 l 71 222 m 673 222 l 673 359 l 810 359 l 810 222 l 673 222 m 221 372 l 221 509 l 358 509 l 358 372 l 221 372 m 372 372 l 372 509 l 508 509 l 508 372 l 372 372 m 522 373 l 522 510 l 659 510 l 659 373 l 522 373 m 673 373 l 673 510 l 810 510 l 810 373 l 673 373 m 673 523 l 673 660 l 810 660 l 810 523 l 673 523 m 221 673 l 221 810 l 358 810 l 358 673 l 221 673 m 372 674 l 372 810 l 508 810 l 508 674 l 372 674 m 522 674 l 522 810 l 659 810 l 659 674 l 522 674 m 221 823 l 221 960 l 358 960 l 358 823 l 221 823 m 522 823 l 522 960 l 659 960 l 659 823 l 522 823 m 372 974 l 372 1111 l 508 1111 l 508 974 l 372 974 m 222 974 l 222 1111 l 358 1111 l 358 974 l 222 974 m 523 974 l 523 1111 l 660 1111 l 660 974 l 523 974 z "},"æ":{"ha":850,"x_min":71,"x_max":810,"o":"m 71 72 l 71 208 l 207 208 l 207 72 l 71 72 m 221 72 l 221 208 l 358 208 l 358 72 l 221 72 m 372 72 l 372 208 l 508 208 l 508 72 l 372 72 m 522 72 l 522 208 l 659 208 l 659 72 l 522 72 m 673 72 l 673 208 l 810 208 l 810 72 l 673 72 m 71 222 l 71 358 l 207 358 l 207 222 l 71 222 m 372 222 l 372 359 l 508 359 l 508 222 l 372 222 m 71 372 l 71 509 l 207 509 l 207 372 l 71 372 m 221 372 l 221 509 l 358 509 l 358 372 l 221 372 m 372 373 l 372 509 l 508 509 l 508 373 l 372 373 m 522 373 l 522 510 l 659 510 l 659 373 l 522 373 m 673 373 l 673 510 l 810 510 l 810 373 l 673 373 m 372 523 l 372 660 l 508 660 l 508 523 l 372 523 m 673 523 l 673 660 l 810 660 l 810 523 l 673 523 m 71 674 l 71 811 l 207 811 l 207 674 l 71 674 m 221 674 l 221 811 l 358 811 l 358 674 l 221 674 m 522 674 l 522 811 l 659 811 l 659 674 l 522 674 z "},"ç":{"ha":850,"x_min":71,"x_max":810,"o":"m 221 72 l 221 208 l 358 208 l 358 72 l 221 72 m 372 72 l 372 208 l 509 208 l 509 72 l 372 72 m 372 222 l 372 359 l 509 359 l 509 222 l 372 222 m 221 373 l 221 509 l 358 509 l 358 373 l 221 373 m 372 373 l 372 510 l 508 510 l 508 373 l 372 373 m 522 373 l 522 510 l 659 510 l 659 373 l 522 373 m 71 523 l 71 660 l 207 660 l 207 523 l 71 523 m 673 523 l 673 660 l 810 660 l 810 523 l 673 523 m 71 674 l 71 810 l 207 810 l 207 674 l 71 674 m 71 823 l 71 960 l 207 960 l 207 823 l 71 823 m 221 974 l 221 1111 l 358 1111 l 358 974 l 221 974 m 372 974 l 372 1111 l 508 1111 l 508 974 l 372 974 m 522 974 l 522 1111 l 659 1111 l 659 974 l 522 974 z "},"è":{"ha":850,"x_min":71,"x_max":810,"o":"m 221 72 l 221 208 l 358 208 l 358 72 l 221 72 m 372 72 l 372 208 l 508 208 l 508 72 l 372 72 m 522 72 l 522 208 l 659 208 l 659 72 l 522 72 m 71 222 l 71 359 l 207 359 l 207 222 l 71 222 m 71 372 l 71 509 l 207 509 l 207 372 l 71 372 m 221 372 l 221 509 l 358 509 l 358 372 l 221 372 m 372 373 l 372 510 l 508 510 l 508 373 l 372 373 m 522 373 l 522 510 l 659 510 l 659 373 l 522 373 m 673 373 l 673 510 l 810 510 l 810 373 l 673 373 m 71 523 l 71 660 l 207 660 l 207 523 l 71 523 m 673 523 l 673 660 l 810 660 l 810 523 l 673 523 m 221 674 l 221 810 l 358 810 l 358 674 l 221 674 m 372 674 l 372 810 l 508 810 l 508 674 l 372 674 m 522 674 l 522 811 l 659 811 l 659 674 l 522 674 m 372 823 l 372 960 l 508 960 l 508 823 l 372 823 m 221 974 l 221 1111 l 358 1111 l 358 974 l 221 974 z "},"é":{"ha":850,"x_min":71,"x_max":810,"o":"m 221 72 l 221 208 l 358 208 l 358 72 l 221 72 m 372 72 l 372 208 l 508 208 l 508 72 l 372 72 m 522 72 l 522 208 l 659 208 l 659 72 l 522 72 m 71 222 l 71 359 l 207 359 l 207 222 l 71 222 m 71 372 l 71 509 l 207 509 l 207 372 l 71 372 m 221 372 l 221 509 l 358 509 l 358 372 l 221 372 m 372 373 l 372 510 l 508 510 l 508 373 l 372 373 m 522 373 l 522 510 l 659 510 l 659 373 l 522 373 m 673 373 l 673 510 l 810 510 l 810 373 l 673 373 m 71 523 l 71 660 l 207 660 l 207 523 l 71 523 m 673 523 l 673 660 l 810 660 l 810 523 l 673 523 m 221 674 l 221 810 l 358 810 l 358 674 l 221 674 m 372 674 l 372 810 l 508 810 l 508 674 l 372 674 m 522 674 l 522 811 l 659 811 l 659 674 l 522 674 m 372 823 l 372 960 l 508 960 l 508 823 l 372 823 m 522 974 l 522 1111 l 659 1111 l 659 974 l 522 974 z "},"ê":{"ha":850,"x_min":71,"x_max":810,"o":"m 221 72 l 221 208 l 358 208 l 358 72 l 221 72 m 372 72 l 372 208 l 508 208 l 508 72 l 372 72 m 522 72 l 522 208 l 659 208 l 659 72 l 522 72 m 71 222 l 71 358 l 207 358 l 207 222 l 71 222 m 71 372 l 71 509 l 207 509 l 207 372 l 71 372 m 221 372 l 221 509 l 358 509 l 358 372 l 221 372 m 372 373 l 372 510 l 508 510 l 508 373 l 372 373 m 522 373 l 522 510 l 659 510 l 659 373 l 522 373 m 673 373 l 673 510 l 810 510 l 810 373 l 673 373 m 71 523 l 71 660 l 207 660 l 207 523 l 71 523 m 673 523 l 673 660 l 810 660 l 810 523 l 673 523 m 221 674 l 221 810 l 358 810 l 358 674 l 221 674 m 372 674 l 372 810 l 508 810 l 508 674 l 372 674 m 522 674 l 522 811 l 659 811 l 659 674 l 522 674 m 221 823 l 221 960 l 358 960 l 358 823 l 221 823 m 522 823 l 522 960 l 659 960 l 659 823 l 522 823 m 372 974 l 372 1111 l 508 1111 l 508 974 l 372 974 z "},"ë":{"ha":850,"x_min":71,"x_max":810,"o":"m 221 72 l 221 208 l 358 208 l 358 72 l 221 72 m 372 72 l 372 208 l 508 208 l 508 72 l 372 72 m 522 72 l 522 208 l 659 208 l 659 72 l 522 72 m 71 222 l 71 359 l 207 359 l 207 222 l 71 222 m 71 372 l 71 509 l 207 509 l 207 372 l 71 372 m 221 372 l 221 509 l 358 509 l 358 372 l 221 372 m 372 373 l 372 510 l 508 510 l 508 373 l 372 373 m 522 373 l 522 510 l 659 510 l 659 373 l 522 373 m 673 373 l 673 510 l 810 510 l 810 373 l 673 373 m 71 523 l 71 660 l 207 660 l 207 523 l 71 523 m 673 523 l 673 660 l 810 660 l 810 523 l 673 523 m 221 674 l 221 810 l 358 810 l 358 674 l 221 674 m 372 674 l 372 810 l 508 810 l 508 674 l 372 674 m 522 674 l 522 811 l 659 811 l 659 674 l 522 674 m 221 974 l 221 1111 l 358 1111 l 358 974 l 221 974 m 522 974 l 522 1111 l 659 1111 l 659 974 l 522 974 z "},"ì":{"ha":850,"x_min":222,"x_max":659,"o":"m 222 72 l 222 208 l 358 208 l 358 72 l 222 72 m 372 72 l 372 208 l 509 208 l 509 72 l 372 72 m 523 72 l 523 208 l 659 208 l 659 72 l 523 72 m 372 222 l 372 359 l 509 359 l 509 222 l 372 222 m 372 373 l 372 510 l 509 510 l 509 373 l 372 373 m 372 523 l 372 660 l 509 660 l 509 523 l 372 523 m 222 674 l 222 810 l 358 810 l 358 674 l 222 674 m 372 674 l 372 810 l 508 810 l 508 674 l 372 674 m 372 823 l 372 960 l 508 960 l 508 823 l 372 823 m 222 974 l 222 1111 l 358 1111 l 358 974 l 222 974 z "},"í":{"ha":850,"x_min":222,"x_max":659,"o":"m 222 72 l 222 208 l 358 208 l 358 72 l 222 72 m 372 72 l 372 208 l 509 208 l 509 72 l 372 72 m 523 72 l 523 208 l 659 208 l 659 72 l 523 72 m 372 222 l 372 359 l 509 359 l 509 222 l 372 222 m 372 373 l 372 510 l 509 510 l 509 373 l 372 373 m 372 523 l 372 660 l 508 660 l 508 523 l 372 523 m 222 674 l 222 810 l 358 810 l 358 674 l 222 674 m 372 674 l 372 810 l 508 810 l 508 674 l 372 674 m 372 823 l 372 960 l 508 960 l 508 823 l 372 823 m 522 974 l 522 1111 l 659 1111 l 659 974 l 522 974 z "},"î":{"ha":850,"x_min":222,"x_max":659,"o":"m 222 72 l 222 208 l 358 208 l 358 72 l 222 72 m 372 72 l 372 208 l 509 208 l 509 72 l 372 72 m 523 72 l 523 208 l 659 208 l 659 72 l 523 72 m 372 222 l 372 359 l 509 359 l 509 222 l 372 222 m 372 373 l 372 510 l 509 510 l 509 373 l 372 373 m 372 523 l 372 660 l 508 660 l 508 523 l 372 523 m 222 674 l 222 810 l 358 810 l 358 674 l 222 674 m 372 674 l 372 810 l 508 810 l 508 674 l 372 674 m 222 823 l 222 960 l 358 960 l 358 823 l 222 823 m 522 823 l 522 960 l 659 960 l 659 823 l 522 823 m 372 974 l 372 1111 l 508 1111 l 508 974 l 372 974 z "},"ï":{"ha":850,"x_min":222,"x_max":659,"o":"m 222 72 l 222 208 l 358 208 l 358 72 l 222 72 m 372 72 l 372 208 l 509 208 l 509 72 l 372 72 m 523 72 l 523 208 l 659 208 l 659 72 l 523 72 m 372 222 l 372 359 l 509 359 l 509 222 l 372 222 m 372 373 l 372 510 l 509 510 l 509 373 l 372 373 m 372 523 l 372 660 l 508 660 l 508 523 l 372 523 m 222 674 l 222 810 l 358 810 l 358 674 l 222 674 m 372 674 l 372 810 l 508 810 l 508 674 l 372 674 m 222 974 l 222 1111 l 358 1111 l 358 974 l 222 974 m 522 974 l 522 1111 l 659 1111 l 659 974 l 522 974 z "},"ð":{"ha":850,"x_min":71,"x_max":810,"o":"m 221 72 l 221 208 l 358 208 l 358 72 l 221 72 m 372 72 l 372 208 l 508 208 l 508 72 l 372 72 m 522 72 l 522 208 l 659 208 l 659 72 l 522 72 m 71 222 l 71 359 l 207 359 l 207 222 l 71 222 m 522 222 l 522 359 l 659 359 l 659 222 l 522 222 m 71 372 l 71 509 l 207 509 l 207 372 l 71 372 m 372 372 l 372 509 l 508 509 l 508 372 l 372 372 m 522 373 l 522 510 l 659 510 l 659 373 l 522 373 m 221 523 l 221 660 l 358 660 l 358 523 l 221 523 m 522 523 l 522 660 l 659 660 l 659 523 l 522 523 m 522 674 l 522 810 l 659 810 l 659 674 l 522 674 m 372 823 l 372 960 l 508 960 l 508 823 l 372 823 m 522 823 l 522 960 l 659 960 l 659 823 l 522 823 m 673 824 l 673 960 l 810 960 l 810 824 l 673 824 m 522 974 l 522 1111 l 659 1111 l 659 974 l 522 974 z "},"ñ":{"ha":850,"x_min":71,"x_max":810,"o":"m 71 72 l 71 208 l 207 208 l 207 72 l 71 72 m 673 72 l 673 208 l 810 208 l 810 72 l 673 72 m 71 222 l 71 359 l 207 359 l 207 222 l 71 222 m 673 222 l 673 359 l 810 359 l 810 222 l 673 222 m 71 372 l 71 509 l 207 509 l 207 372 l 71 372 m 673 373 l 673 510 l 810 510 l 810 373 l 673 373 m 71 523 l 71 660 l 207 660 l 207 523 l 71 523 m 221 523 l 221 660 l 358 660 l 358 523 l 221 523 m 673 523 l 673 660 l 810 660 l 810 523 l 673 523 m 71 674 l 71 810 l 207 810 l 207 674 l 71 674 m 372 674 l 372 810 l 508 810 l 508 674 l 372 674 m 522 674 l 522 811 l 659 811 l 659 674 l 522 674 m 221 974 l 221 1111 l 358 1111 l 358 974 l 221 974 m 372 974 l 372 1111 l 508 1111 l 508 974 l 372 974 m 522 974 l 522 1111 l 659 1111 l 659 974 l 522 974 z "},"ò":{"ha":850,"x_min":71,"x_max":810,"o":"m 221 72 l 221 208 l 358 208 l 358 72 l 221 72 m 372 72 l 372 208 l 509 208 l 509 72 l 372 72 m 522 72 l 522 208 l 659 208 l 659 72 l 522 72 m 71 222 l 71 359 l 207 359 l 207 222 l 71 222 m 673 222 l 673 359 l 810 359 l 810 222 l 673 222 m 71 372 l 71 509 l 207 509 l 207 372 l 71 372 m 673 373 l 673 510 l 810 510 l 810 373 l 673 373 m 221 523 l 221 660 l 358 660 l 358 523 l 221 523 m 372 523 l 372 660 l 508 660 l 508 523 l 372 523 m 522 523 l 522 660 l 659 660 l 659 523 l 522 523 m 372 823 l 372 960 l 508 960 l 508 823 l 372 823 m 221 974 l 221 1111 l 358 1111 l 358 974 l 221 974 z "},"ó":{"ha":850,"x_min":71,"x_max":810,"o":"m 221 72 l 221 208 l 358 208 l 358 72 l 221 72 m 372 72 l 372 208 l 508 208 l 508 72 l 372 72 m 522 72 l 522 208 l 659 208 l 659 72 l 522 72 m 71 222 l 71 359 l 207 359 l 207 222 l 71 222 m 673 222 l 673 359 l 810 359 l 810 222 l 673 222 m 71 372 l 71 509 l 207 509 l 207 372 l 71 372 m 673 373 l 673 510 l 810 510 l 810 373 l 673 373 m 221 523 l 221 660 l 358 660 l 358 523 l 221 523 m 372 523 l 372 660 l 508 660 l 508 523 l 372 523 m 522 523 l 522 660 l 659 660 l 659 523 l 522 523 m 372 823 l 372 960 l 508 960 l 508 823 l 372 823 m 522 974 l 522 1111 l 659 1111 l 659 974 l 522 974 z "},"ô":{"ha":850,"x_min":71,"x_max":810,"o":"m 221 72 l 221 208 l 358 208 l 358 72 l 221 72 m 372 72 l 372 208 l 508 208 l 508 72 l 372 72 m 522 72 l 522 208 l 659 208 l 659 72 l 522 72 m 71 222 l 71 359 l 207 359 l 207 222 l 71 222 m 673 222 l 673 359 l 810 359 l 810 222 l 673 222 m 71 372 l 71 509 l 207 509 l 207 372 l 71 372 m 673 373 l 673 510 l 810 510 l 810 373 l 673 373 m 221 523 l 221 660 l 358 660 l 358 523 l 221 523 m 372 523 l 372 660 l 508 660 l 508 523 l 372 523 m 522 523 l 522 660 l 659 660 l 659 523 l 522 523 m 221 823 l 221 960 l 358 960 l 358 823 l 221 823 m 522 823 l 522 960 l 659 960 l 659 823 l 522 823 m 372 974 l 372 1111 l 508 1111 l 508 974 l 372 974 z "},"õ":{"ha":850,"x_min":71,"x_max":810,"o":"m 221 72 l 221 208 l 358 208 l 358 72 l 221 72 m 372 72 l 372 208 l 508 208 l 508 72 l 372 72 m 522 72 l 522 208 l 659 208 l 659 72 l 522 72 m 71 222 l 71 359 l 207 359 l 207 222 l 71 222 m 673 222 l 673 359 l 810 359 l 810 222 l 673 222 m 71 372 l 71 509 l 207 509 l 207 372 l 71 372 m 673 373 l 673 510 l 810 510 l 810 373 l 673 373 m 221 523 l 221 660 l 358 660 l 358 523 l 221 523 m 372 523 l 372 660 l 508 660 l 508 523 l 372 523 m 522 523 l 522 660 l 659 660 l 659 523 l 522 523 m 71 823 l 71 960 l 207 960 l 207 823 l 71 823 m 372 823 l 372 960 l 508 960 l 508 823 l 372 823 m 221 974 l 221 1111 l 358 1111 l 358 974 l 221 974 m 522 974 l 522 1111 l 659 1111 l 659 974 l 522 974 z "},"ö":{"ha":850,"x_min":71,"x_max":810,"o":"m 221 72 l 221 208 l 358 208 l 358 72 l 221 72 m 372 72 l 372 208 l 508 208 l 508 72 l 372 72 m 522 72 l 522 208 l 659 208 l 659 72 l 522 72 m 71 222 l 71 359 l 207 359 l 207 222 l 71 222 m 673 222 l 673 359 l 810 359 l 810 222 l 673 222 m 71 372 l 71 509 l 207 509 l 207 372 l 71 372 m 673 373 l 673 510 l 810 510 l 810 373 l 673 373 m 71 523 l 71 660 l 207 660 l 207 523 l 71 523 m 673 523 l 673 660 l 810 660 l 810 523 l 673 523 m 221 674 l 221 810 l 358 810 l 358 674 l 221 674 m 372 674 l 372 810 l 508 810 l 508 674 l 372 674 m 522 674 l 522 811 l 659 811 l 659 674 l 522 674 m 221 974 l 221 1111 l 358 1111 l 358 974 l 221 974 m 522 974 l 522 1111 l 659 1111 l 659 974 l 522 974 z "},"÷":{"ha":850,"x_min":71,"x_max":810,"o":"m 372 222 l 372 359 l 509 359 l 509 222 l 372 222 m 71 523 l 71 660 l 208 660 l 208 523 l 71 523 m 221 523 l 221 660 l 358 660 l 358 523 l 221 523 m 372 523 l 372 660 l 509 660 l 509 523 l 372 523 m 522 523 l 522 660 l 659 660 l 659 523 l 522 523 m 673 523 l 673 660 l 810 660 l 810 523 l 673 523 m 372 823 l 372 961 l 509 961 l 509 823 l 372 823 z "},"ø":{"ha":850,"x_min":71,"x_max":810,"o":"m 71 72 l 71 208 l 207 208 l 207 72 l 71 72 m 372 72 l 372 208 l 508 208 l 508 72 l 372 72 m 522 72 l 522 208 l 659 208 l 659 72 l 522 72 m 221 222 l 221 359 l 358 359 l 358 222 l 221 222 m 673 222 l 673 359 l 810 359 l 810 222 l 673 222 m 71 372 l 71 509 l 207 509 l 207 372 l 71 372 m 372 373 l 372 510 l 508 510 l 508 373 l 372 373 m 673 373 l 673 510 l 810 510 l 810 373 l 673 373 m 71 523 l 71 660 l 207 660 l 207 523 l 71 523 m 522 523 l 522 660 l 659 660 l 659 523 l 522 523 m 221 674 l 221 811 l 358 811 l 358 674 l 221 674 m 372 674 l 372 811 l 508 811 l 508 674 l 372 674 m 673 674 l 673 811 l 810 811 l 810 674 l 673 674 z "},"ù":{"ha":850,"x_min":71,"x_max":810,"o":"m 221 72 l 221 208 l 358 208 l 358 72 l 221 72 m 372 72 l 372 208 l 508 208 l 508 72 l 372 72 m 673 72 l 673 208 l 810 208 l 810 72 l 673 72 m 71 222 l 71 359 l 207 359 l 207 222 l 71 222 m 522 222 l 522 359 l 659 359 l 659 222 l 522 222 m 673 222 l 673 359 l 810 359 l 810 222 l 673 222 m 71 372 l 71 509 l 207 509 l 207 372 l 71 372 m 673 373 l 673 510 l 810 510 l 810 373 l 673 373 m 71 523 l 71 660 l 207 660 l 207 523 l 71 523 m 673 523 l 673 660 l 810 660 l 810 523 l 673 523 m 71 674 l 71 810 l 207 810 l 207 674 l 71 674 m 673 674 l 673 811 l 810 811 l 810 674 l 673 674 m 372 823 l 372 960 l 508 960 l 508 823 l 372 823 m 221 974 l 221 1111 l 358 1111 l 358 974 l 221 974 z "},"ú":{"ha":850,"x_min":71,"x_max":810,"o":"m 221 72 l 221 208 l 358 208 l 358 72 l 221 72 m 372 72 l 372 208 l 508 208 l 508 72 l 372 72 m 673 72 l 673 208 l 810 208 l 810 72 l 673 72 m 71 222 l 71 359 l 207 359 l 207 222 l 71 222 m 522 222 l 522 359 l 659 359 l 659 222 l 522 222 m 673 222 l 673 359 l 810 359 l 810 222 l 673 222 m 71 372 l 71 509 l 207 509 l 207 372 l 71 372 m 673 373 l 673 510 l 810 510 l 810 373 l 673 373 m 71 523 l 71 660 l 207 660 l 207 523 l 71 523 m 673 523 l 673 660 l 810 660 l 810 523 l 673 523 m 71 674 l 71 810 l 207 810 l 207 674 l 71 674 m 673 674 l 673 811 l 810 811 l 810 674 l 673 674 m 372 823 l 372 960 l 508 960 l 508 823 l 372 823 m 522 974 l 522 1111 l 659 1111 l 659 974 l 522 974 z "},"û":{"ha":850,"x_min":71,"x_max":810,"o":"m 221 72 l 221 208 l 358 208 l 358 72 l 221 72 m 372 72 l 372 208 l 508 208 l 508 72 l 372 72 m 673 72 l 673 208 l 810 208 l 810 72 l 673 72 m 71 222 l 71 359 l 207 359 l 207 222 l 71 222 m 522 222 l 522 359 l 659 359 l 659 222 l 522 222 m 673 222 l 673 359 l 810 359 l 810 222 l 673 222 m 71 372 l 71 509 l 207 509 l 207 372 l 71 372 m 673 373 l 673 510 l 810 510 l 810 373 l 673 373 m 71 523 l 71 660 l 207 660 l 207 523 l 71 523 m 673 523 l 673 660 l 810 660 l 810 523 l 673 523 m 221 823 l 221 960 l 358 960 l 358 823 l 221 823 m 522 823 l 522 960 l 659 960 l 659 823 l 522 823 m 372 974 l 372 1111 l 508 1111 l 508 974 l 372 974 z "},"ü":{"ha":850,"x_min":71,"x_max":810,"o":"m 221 72 l 221 208 l 358 208 l 358 72 l 221 72 m 372 72 l 372 208 l 508 208 l 508 72 l 372 72 m 673 72 l 673 208 l 810 208 l 810 72 l 673 72 m 71 222 l 71 359 l 207 359 l 207 222 l 71 222 m 522 222 l 522 359 l 659 359 l 659 222 l 522 222 m 673 222 l 673 359 l 810 359 l 810 222 l 673 222 m 71 372 l 71 509 l 207 509 l 207 372 l 71 372 m 673 373 l 673 510 l 810 510 l 810 373 l 673 373 m 71 523 l 71 660 l 207 660 l 207 523 l 71 523 m 673 523 l 673 660 l 810 660 l 810 523 l 673 523 m 71 674 l 71 810 l 207 810 l 207 674 l 71 674 m 673 674 l 673 811 l 810 811 l 810 674 l 673 674 m 221 974 l 221 1111 l 358 1111 l 358 974 l 221 974 m 522 974 l 522 1111 l 659 1111 l 659 974 l 522 974 z "},"ý":{"ha":850,"x_min":71,"x_max":810,"o":"m 221 72 l 221 208 l 358 208 l 358 72 l 221 72 m 372 72 l 372 208 l 508 208 l 508 72 l 372 72 m 522 72 l 522 208 l 659 208 l 659 72 l 522 72 m 673 222 l 673 359 l 810 359 l 810 222 l 673 222 m 221 372 l 221 509 l 358 509 l 358 372 l 221 372 m 372 373 l 372 509 l 508 509 l 508 373 l 372 373 m 522 373 l 522 510 l 659 510 l 659 373 l 522 373 m 673 373 l 673 510 l 810 510 l 810 373 l 673 373 m 71 523 l 71 660 l 207 660 l 207 523 l 71 523 m 673 523 l 673 660 l 810 660 l 810 523 l 673 523 m 71 674 l 71 810 l 207 810 l 207 674 l 71 674 m 673 674 l 673 811 l 810 811 l 810 674 l 673 674 m 372 823 l 372 960 l 508 960 l 508 823 l 372 823 m 522 974 l 522 1111 l 659 1111 l 659 974 l 522 974 z "},"þ":{"ha":850,"x_min":71,"x_max":659,"o":"m 71 72 l 71 208 l 208 208 l 208 72 l 71 72 m 71 222 l 71 359 l 208 359 l 208 222 l 71 222 m 221 222 l 221 359 l 358 359 l 358 222 l 221 222 m 372 222 l 372 359 l 509 359 l 509 222 l 372 222 m 71 373 l 71 509 l 207 509 l 207 373 l 71 373 m 523 373 l 523 510 l 659 510 l 659 373 l 523 373 m 71 523 l 71 660 l 207 660 l 207 523 l 71 523 m 522 523 l 522 660 l 659 660 l 659 523 l 522 523 m 71 674 l 71 810 l 207 810 l 207 674 l 71 674 m 522 674 l 522 811 l 659 811 l 659 674 l 522 674 m 71 823 l 71 960 l 207 960 l 207 823 l 71 823 m 221 823 l 221 960 l 358 960 l 358 823 l 221 823 m 372 823 l 372 960 l 509 960 l 509 823 l 372 823 m 71 974 l 71 1111 l 207 1111 l 207 974 l 71 974 z "},"ÿ":{"ha":850,"x_min":71,"x_max":810,"o":"m 221 72 l 221 208 l 358 208 l 358 72 l 221 72 m 372 72 l 372 208 l 508 208 l 508 72 l 372 72 m 522 72 l 522 208 l 659 208 l 659 72 l 522 72 m 673 222 l 673 359 l 810 359 l 810 222 l 673 222 m 221 372 l 221 509 l 358 509 l 358 372 l 221 372 m 372 373 l 372 509 l 508 509 l 508 373 l 372 373 m 522 373 l 522 510 l 659 510 l 659 373 l 522 373 m 673 373 l 673 510 l 810 510 l 810 373 l 673 373 m 71 523 l 71 660 l 207 660 l 207 523 l 71 523 m 673 523 l 673 660 l 810 660 l 810 523 l 673 523 m 71 674 l 71 810 l 207 810 l 207 674 l 71 674 m 673 674 l 673 811 l 810 811 l 810 674 l 673 674 m 221 974 l 221 1111 l 358 1111 l 358 974 l 221 974 m 522 974 l 522 1111 l 659 1111 l 659 974 l 522 974 z "}}}
